<svg width="45" height="45" viewBox="0 0 45 45" fill="none" xmlns="http://www.w3.org/2000/svg">
<path d="M21.1926 -0.00012207C22.1021 -0.00012207 23.0116 -0.00012207 23.9178 -0.00012207C24.0611 0.0264717 24.201 0.0563897 24.3443 0.0796593C25.557 0.275788 26.793 0.378839 27.9757 0.681344C39.0567 3.51026 46.1397 13.7389 44.847 25.1077C44.194 30.8387 41.6686 35.6854 37.2543 39.3986C30.7576 44.8636 23.3115 46.4193 15.269 43.6669C7.01994 40.8446 2.10915 34.9009 0.356726 26.3743C0.186814 25.5499 0.11685 24.7022 0.000244141 23.8645C0.000244141 22.927 0.000244141 21.9929 0.000244141 21.0555C0.113519 20.2344 0.203472 19.4067 0.3434 18.5889C1.90592 9.49718 9.05555 2.18722 18.1142 0.442C19.1337 0.24587 20.1665 0.146144 21.1926 -0.00012207ZM22.4786 32.6537C25.0506 32.5573 27.4027 31.8692 29.5283 30.4365C35.6384 26.3078 36.0116 18.0005 30.3012 13.3466C26.3366 10.1122 20.493 9.7465 16.0153 12.4458C9.41869 16.4249 8.82234 25.131 14.8092 29.9578C14.9525 30.0741 15.0624 30.3168 15.0691 30.5029C15.1057 31.5833 15.1091 32.667 15.1224 33.7474C15.1291 34.2992 15.2757 34.389 15.7487 34.123C16.8082 33.528 17.8577 32.9163 18.9238 32.3379C19.107 32.2382 19.3669 32.2116 19.5768 32.2382C20.5463 32.3612 21.5124 32.5174 22.4786 32.6604V32.6537Z" fill="white"/>
<path d="M23.6813 25.3205C23.518 25.1942 23.3814 25.1111 23.2748 25.0014C22.5452 24.2435 21.8189 23.4789 21.0926 22.7176C20.6728 22.2755 20.5829 22.2655 20.0332 22.5581C18.7205 23.2628 17.4079 23.9742 16.0885 24.669C15.9719 24.7321 15.8087 24.7088 15.6688 24.7221C15.7221 24.5991 15.7487 24.4496 15.8353 24.3598C17.4778 22.6146 19.127 20.8727 20.7794 19.1341C21.1259 18.7685 21.2525 18.7718 21.6024 19.1408C22.3486 19.9253 23.1016 20.7032 23.8279 21.5043C24.1244 21.8301 24.3909 21.8899 24.784 21.6705C26.0834 20.9392 27.396 20.2344 28.7087 19.5297C28.8353 19.4632 28.9985 19.4665 29.1451 19.4366C29.0818 19.5796 29.0518 19.7524 28.9519 19.8588C27.3494 21.5641 25.7402 23.2628 24.1277 24.9582C24.0011 25.0911 23.8479 25.1909 23.6846 25.3271L23.6813 25.3205Z" fill="white"/>
</svg>
