<svg width="76" height="75" viewBox="0 0 76 75" fill="none" xmlns="http://www.w3.org/2000/svg">
<g clip-path="url(#clip0_273_58)">
<path d="M75.002 12.0117V75C54.6458 75 34.2916 75.002 13.9354 74.9902C12.9883 74.9902 12.0235 74.953 11.0959 74.7769C4.49314 73.5284 0.00390657 68.09 0.00390657 61.3601C-0.00196427 40.9061 -7.32302e-06 20.454 -7.32302e-06 0C20.998 0 41.9941 0 62.9902 0C63.1252 0.0450098 63.2564 0.107632 63.3953 0.131115C69.0059 1.09198 72.6908 4.28571 74.4501 9.68884C74.6967 10.4423 74.8219 11.2368 75.002 12.0117ZM71.6047 71.6047C71.6047 71.2583 71.6047 71.0391 71.6047 70.8219C71.6047 51.7808 71.6106 32.7417 71.6008 13.7006C71.5969 7.77887 67.1957 3.40117 61.2564 3.39922C42.2407 3.39139 23.2231 3.3953 4.20743 3.39922C3.95107 3.39922 3.69471 3.4227 3.39725 3.43836C3.39725 3.74364 3.39725 3.96282 3.39725 4.18004C3.39725 23.2446 3.39725 42.3092 3.40508 61.3757C3.40508 62.0548 3.45988 62.7476 3.59295 63.4129C4.58316 68.3601 8.636 71.6047 13.82 71.6067C32.7867 71.6106 51.7554 71.6067 70.7221 71.6067H71.6047V71.6047Z" fill="white"/>
<path d="M38.5832 23.55C38.4579 26.7594 37.6751 29.5265 36.7984 32.2682C36.6145 32.8416 36.6517 33.2662 37.047 33.73C38.9922 36.0118 40.9217 38.3073 42.8415 40.6126C43.2211 41.0686 43.6497 41.2036 44.2368 41.1938C46.9785 41.1527 49.7123 41.2975 52.3229 42.2154C53.2016 42.5226 54.0626 43.004 54.7906 43.5833C55.863 44.4384 56.045 45.8024 55.4442 47.0373C54.5812 48.8064 52.7417 49.7046 50.82 49.2897C48.9961 48.8964 47.5068 47.8925 46.1566 46.6694C45.0528 45.6713 44.0098 44.6048 42.908 43.6067C42.6888 43.4071 42.3131 43.2623 42.0196 43.2799C38.6262 43.4815 35.2877 44.0275 32.0137 44.9629C31.5499 45.096 31.2798 45.3328 31.0626 45.7555C29.681 48.4521 28.1683 51.0764 26.1624 53.3641C25.4325 54.1958 24.5793 54.9766 23.6438 55.5598C22 56.5852 20.3385 55.9492 19.6027 54.1488C18.9824 52.6263 19.1761 51.1801 20.1233 49.8494C21.773 47.5343 24.0724 46.0373 26.591 44.8435C27.5362 44.3954 28.5362 44.0647 29.4892 43.6341C29.7691 43.5069 30.0802 43.2643 30.1976 42.9962C31.5303 39.9375 32.8415 36.869 34.1115 33.7848C34.229 33.4991 34.1272 33.0216 33.9569 32.7359C32.638 30.5246 31.7593 28.1762 31.5714 25.5891C31.4677 24.1586 31.6047 22.7594 32.1331 21.4208C32.7691 19.8064 33.9511 18.9081 35.2603 18.9884C36.591 19.0705 38.0235 20.3739 38.3796 21.8964C38.5284 22.5304 38.546 23.1977 38.5871 23.5539L38.5832 23.55ZM32.6928 42.5696C35.3346 42.1214 37.955 41.6772 40.591 41.2291C38.9648 39.3112 37.3405 37.3934 35.7104 35.4717C34.6849 37.8807 33.6888 40.2251 32.6928 42.5696ZM35.2074 30.5989C35.3581 30.0686 35.5519 29.5461 35.6536 29.006C35.9883 27.2173 36.3327 25.4287 36.5832 23.6283C36.7045 22.7516 36.3503 21.9473 35.7084 21.3152C35.2329 20.8475 34.7926 20.8514 34.4618 21.4111C34.1331 21.9649 33.8258 22.5774 33.7065 23.2017C33.1996 25.8279 33.9119 28.2525 35.2094 30.6009L35.2074 30.5989ZM28.3757 46.323C25.6928 47.4541 23.1918 48.8142 21.5793 51.3563C21.3699 51.687 21.2211 52.1645 21.2877 52.5304C21.3757 53.0216 21.6086 53.5774 21.9667 53.8885C22.1233 54.0255 22.8258 53.7242 23.1429 53.458C25.456 51.5109 26.8669 48.8866 28.3757 46.323ZM45.4638 43.2114C47.0372 44.7731 48.4364 46.1958 50.3249 46.9629C50.8513 47.1762 51.4481 47.2917 52.0157 47.3093C52.7534 47.3328 53.5421 46.6165 53.681 45.8964C53.8356 45.0862 53.2035 44.8122 52.6575 44.4932C52.5734 44.4443 52.4853 44.4052 52.3953 44.368C50.2446 43.4893 47.9824 43.2917 45.4658 43.2095L45.4638 43.2114Z" fill="white"/>
</g>
<defs>
<clipPath id="clip0_273_58">
<rect width="75.002" height="75" fill="white"/>
</clipPath>
</defs>
</svg>
