<svg width="76" height="75" viewBox="0 0 76 75" fill="none" xmlns="http://www.w3.org/2000/svg">
<g clip-path="url(#clip0_273_78)">
<path d="M27.3659 43.4089C23.3738 40.4695 23.3601 34.5145 27.3659 31.5772C27.1742 31.4167 26.9843 31.2621 26.8004 31.1016C24.5871 29.1603 23.7847 26.0214 24.7886 23.2327C25.7945 20.4402 28.4051 18.5067 31.3601 18.4774C35.4129 18.4363 39.4657 18.4421 43.5186 18.4734C46.6203 18.4969 49.2916 20.4832 50.2661 23.3991C51.2329 26.2934 50.2798 29.4656 47.8689 31.3776C47.7926 31.4382 47.7182 31.4989 47.6106 31.585C49.6458 33.174 50.7143 35.2327 50.6223 37.8257C50.5597 39.5478 49.9217 41.0527 48.7749 42.3384C46.452 44.947 42.225 45.7083 38.8356 43.1368C38.8356 43.3267 38.8356 43.4676 38.8356 43.6104C38.8356 45.45 38.8337 47.2914 38.8297 49.131C38.8239 52.9255 36.3307 55.859 32.5969 56.4695C28.8532 57.0821 25.045 54.3228 24.4736 50.5576C24.0274 47.628 25.043 45.268 27.3679 43.4128L27.3659 43.4089ZM36.1331 30.1995V21.131C34.5088 21.131 32.9198 21.0977 31.3307 21.1388C29.0881 21.1975 27.1526 23.1114 27.0391 25.3169C26.9119 27.7924 28.5342 29.9549 30.8845 30.1682C32.6106 30.3247 34.3601 30.1995 36.1331 30.1995ZM36.1526 42.0644V32.9294C34.6145 32.9294 33.0978 32.9255 31.5812 32.9333C31.2935 32.9333 31 32.9627 30.7162 33.0136C28.6654 33.3873 27.1076 35.1995 27.0333 37.2856C26.9569 39.4637 28.3385 41.3756 30.3914 41.8942C30.7886 41.994 31.2074 42.0507 31.6164 42.0547C33.1194 42.0742 34.6243 42.0625 36.1526 42.0625V42.0644ZM38.8708 21.1329V30.2601C40.454 30.2601 42.002 30.2836 43.5519 30.2543C45.8474 30.2112 47.7886 28.3619 47.9648 26.0918C48.1487 23.7278 46.5714 21.6417 44.2681 21.2053C44.0783 21.1701 43.8845 21.1368 43.6928 21.1368C42.09 21.131 40.4892 21.1329 38.8708 21.1329ZM36.1742 44.7572C36.0059 44.7474 35.8865 44.7357 35.7652 44.7357C34.3542 44.7357 32.9452 44.7259 31.5342 44.7357C28.4423 44.7592 26.2603 47.8511 27.2661 50.7748C27.9804 52.8511 30.043 54.131 32.2074 53.8414C34.3933 53.5478 36.0841 51.7161 36.1605 49.493C36.2055 48.1662 36.1722 46.8394 36.1761 45.5106C36.1761 45.266 36.1761 45.0214 36.1761 44.7552L36.1742 44.7572ZM43.407 32.9314C40.8767 32.9314 38.8376 34.9607 38.8356 37.4832C38.8337 40.0155 40.8571 42.0586 43.3777 42.0684C45.9217 42.0781 47.9765 40.0312 47.9726 37.4911C47.9706 34.9646 45.9335 32.9314 43.4051 32.9314H43.407Z" fill="white"/>
<path d="M75.002 12.0117V75C54.6458 75 34.2916 75.002 13.9354 74.9902C12.9883 74.9902 12.0235 74.953 11.0959 74.7769C4.49314 73.5284 0.00390657 68.09 0.00390657 61.3601C-0.00196427 40.9061 -7.32302e-06 20.454 -7.32302e-06 0C20.998 0 41.9941 0 62.9902 0C63.1252 0.0450098 63.2564 0.107632 63.3953 0.131115C69.0059 1.09198 72.6908 4.28571 74.4501 9.68884C74.6967 10.4423 74.8219 11.2368 75.002 12.0117ZM71.6047 71.6047C71.6047 71.2583 71.6047 71.0391 71.6047 70.8219C71.6047 51.7808 71.6106 32.7417 71.6008 13.7006C71.5969 7.77887 67.1957 3.40117 61.2564 3.39922C42.2407 3.39139 23.2231 3.3953 4.20743 3.39922C3.95107 3.39922 3.69471 3.4227 3.39725 3.43836C3.39725 3.74364 3.39725 3.96282 3.39725 4.18004C3.39725 23.2446 3.39725 42.3092 3.40508 61.3757C3.40508 62.0548 3.45988 62.7476 3.59295 63.4129C4.58316 68.3601 8.636 71.6047 13.82 71.6067C32.7867 71.6106 51.7554 71.6067 70.7221 71.6067H71.6047V71.6047Z" fill="white"/>
</g>
<defs>
<clipPath id="clip0_273_78">
<rect width="75.002" height="75" fill="white"/>
</clipPath>
</defs>
</svg>
