<svg width="76" height="75" viewBox="0 0 76 75" fill="none" xmlns="http://www.w3.org/2000/svg">
<g clip-path="url(#clip0_273_65)">
<path d="M3.72017e-06 62.985C3.72017e-06 42.0017 3.72017e-06 21.0204 3.72017e-06 0C20.995 0 41.99 0 62.985 0C63.0711 0.0391369 63.1552 0.103713 63.2452 0.113497C69.4719 0.796436 75.0509 6.3167 75.0215 13.9171C74.9452 33.9787 74.9961 54.0402 74.9961 74.1018V74.9726C74.7593 74.9824 74.6165 74.9961 74.4717 74.9961C54.0676 74.9961 33.6656 75.0117 13.2615 74.9843C7.42819 74.9765 2.26016 71.0433 0.587057 65.4565C0.344408 64.6463 0.191775 63.8088 -0.00195312 62.985H3.72017e-06ZM3.39709 3.39513C3.39709 3.74344 3.39709 3.96065 3.39709 4.17786C3.39709 23.218 3.39317 42.2561 3.401 61.2962C3.40296 67.2059 7.80977 71.5931 13.7468 71.597C32.7615 71.6049 51.7781 71.601 70.7928 71.597C71.0491 71.597 71.3055 71.5736 71.601 71.5579V70.8143C71.601 51.7742 71.601 32.7341 71.5931 13.696C71.5931 12.9915 71.5403 12.2753 71.4033 11.5865C70.421 6.63958 66.3664 3.39513 61.1788 3.39513C42.2131 3.39121 23.2454 3.39513 4.27962 3.39513C4.01741 3.39513 3.75519 3.39513 3.39904 3.39513H3.39709Z" fill="white"/>
<path d="M21.4587 50.9915C22.0928 49.1794 22.6602 47.5513 23.2297 45.9252C25.2922 40.039 27.3645 34.1587 29.4074 28.2647C29.6521 27.5602 29.7812 26.8029 29.8673 26.0593C29.9201 25.6034 30.0884 25.4899 30.5052 25.4938C32.0922 25.5094 33.6792 25.5251 35.2643 25.4859C35.8142 25.4722 36.0275 25.6953 36.1957 26.1748C37.7416 30.564 39.3091 34.9453 40.8667 39.3287C42.1485 42.9312 43.4282 46.5357 44.7061 50.1402C44.7941 50.3868 44.8704 50.6373 45.0015 51.0404H43.0232C42.5359 51.0404 42.0467 51.0482 41.5595 51.0404C39.4324 51.0032 40.0018 51.3535 39.2778 49.3869C38.7064 47.8331 38.1741 46.2618 37.6614 44.6885C37.5049 44.209 37.3072 43.9899 36.7515 43.9977C34.2135 44.031 31.6754 44.0251 29.1374 44.0016C28.6638 43.9977 28.4525 44.1562 28.3116 44.6004C27.6893 46.5494 27.0397 48.4906 26.3743 50.4259C26.3 50.6431 26.0769 50.966 25.9145 50.9699C24.4821 51.013 23.0497 50.9954 21.4587 50.9954V50.9915ZM29.5601 40.2484H36.3993C35.2388 36.6654 34.0941 33.1313 32.9278 29.5268C31.7889 33.1548 30.6813 36.6752 29.5601 40.2484Z" fill="white"/>
<path d="M53.3064 41.7475C53.3064 44.5536 53.2829 47.3578 53.3221 50.1639C53.3319 50.8625 53.1049 51.0445 52.4474 51.0151C51.3515 50.9682 50.2518 50.9799 49.1559 51.0112C48.6315 51.0269 48.4221 50.8762 48.4241 50.3166C48.4397 44.5595 48.4397 38.8025 48.4241 33.0454C48.4241 32.4897 48.608 32.3331 49.1442 32.3508C50.289 32.386 51.4376 32.3938 52.5824 32.3488C53.187 32.3253 53.3221 32.5543 53.3182 33.112C53.2947 35.9905 53.3084 38.869 53.3084 41.7475H53.3064Z" fill="white"/>
<path d="M50.9386 24.0044C52.4415 24.0024 53.4551 25.0533 53.4532 26.6129C53.4532 28.1294 52.3319 29.282 50.8564 29.284C49.4162 29.284 48.2029 28.0727 48.2049 26.6324C48.2069 25.1492 49.3947 24.0083 50.9367 24.0064L50.9386 24.0044Z" fill="white"/>
</g>
<defs>
<clipPath id="clip0_273_65">
<rect width="75.0215" height="75" fill="white"/>
</clipPath>
</defs>
</svg>
