<svg width="76" height="75" viewBox="0 0 76 75" fill="none" xmlns="http://www.w3.org/2000/svg">
<g clip-path="url(#clip0_273_236)">
<path d="M75.0019 12.0117V75C54.6457 75 34.2915 75.002 13.9354 74.9902C12.9882 74.9902 12.0234 74.953 11.0958 74.7769C4.4931 73.5284 0.00386079 68.09 0.00386079 61.3601C-0.00201005 40.9061 -5.30994e-05 20.454 -5.30994e-05 0C20.998 0 41.9941 0 62.9902 0C63.1252 0.0450098 63.2563 0.107632 63.3953 0.131115C69.0058 1.09198 72.6908 4.28571 74.4501 9.68884C74.6966 10.4423 74.8219 11.2368 75.0019 12.0117ZM71.6046 71.6047C71.6046 71.2583 71.6046 71.0391 71.6046 70.8219C71.6046 51.7808 71.6105 32.7417 71.6007 13.7006C71.5968 7.77887 67.1956 3.40117 61.2563 3.39922C42.2407 3.39139 23.223 3.3953 4.20738 3.39922C3.95102 3.39922 3.69466 3.4227 3.39721 3.43836C3.39721 3.74364 3.39721 3.96282 3.39721 4.18004C3.39721 23.2446 3.39721 42.3092 3.40504 61.3757C3.40504 62.0548 3.45983 62.7476 3.5929 63.4129C4.58312 68.3601 8.63596 71.6047 13.8199 71.6067C32.7866 71.6106 51.7553 71.6067 70.7221 71.6067H71.6046V71.6047Z" fill="white"/>
<path d="M19.407 28.9553C19.407 26.8594 19.4442 24.7635 19.3914 22.6676C19.3659 21.6989 19.7358 21.4074 20.6692 21.4152C24.8591 21.4484 29.0509 21.4504 33.2407 21.4132C34.1976 21.4054 34.5068 21.7342 34.4912 22.6813C34.4422 25.5972 34.4501 28.513 34.4833 31.4289C34.4912 32.1784 34.2289 32.7068 33.7182 33.2312C31.5942 35.4047 29.0156 36.4941 25.9824 36.4993C24.1604 36.4993 22.3385 36.4719 20.5166 36.5091C19.6849 36.5267 19.3914 36.194 19.4031 35.38C19.4364 33.2391 19.4148 31.0982 19.4148 28.9553H19.409H19.407Z" fill="#FEFEFD"/>
<path d="M55.6007 32.7379C55.6908 33.2662 55.2524 33.4737 54.7221 33.5891C51.6516 34.2506 48.5812 34.9081 45.5107 35.5656C45.0078 35.6733 44.6379 35.3915 44.2602 35.1371C43.542 34.6537 42.8865 34.0275 42.1037 33.7026C40.3131 32.959 39.9158 31.4932 39.636 29.7946C39.2504 27.46 38.724 25.1449 38.1663 22.8455C37.9589 21.9883 38.2602 21.6615 39.0039 21.505C43.2798 20.6028 47.5577 19.7046 51.8317 18.7946C52.3502 18.685 52.6908 18.7183 52.8238 19.3523C53.7182 23.6322 54.6379 27.9081 55.5459 32.184C55.5733 32.3171 55.5733 32.4561 55.6007 32.7379Z" fill="#FEFEFE"/>
<path d="M26.9354 56.2386C24.8395 56.2386 22.7416 56.2171 20.6457 56.2503C19.8238 56.264 19.3874 56.0781 19.3952 55.1231C19.4305 50.8374 19.4226 46.5537 19.3952 42.268C19.3913 41.4402 19.7044 41.1427 20.5224 41.1505C23.5753 41.1799 26.6301 41.1642 29.6829 41.1642C30.1037 41.1642 30.4461 41.2484 30.7729 41.5869C31.8473 42.7004 32.9569 43.7846 34.0841 44.8453C34.4774 45.2151 34.4657 45.6456 34.4657 46.0977C34.4696 49.0605 34.4403 52.0233 34.4853 54.9862C34.499 55.9372 34.1761 56.2738 33.223 56.2503C31.1271 56.1995 29.0313 56.2347 26.9334 56.2347L26.9354 56.2386Z" fill="#FDFEFE"/>
<path d="M53.6868 48.8063C53.6868 50.9061 53.6672 53.004 53.6966 55.1038C53.7083 55.9022 53.4383 56.2564 52.5929 56.2505C48.3502 56.2251 44.1075 56.229 39.8649 56.2447C39.1212 56.2466 38.859 55.9668 38.7827 55.2114C38.4696 52.1096 38.812 49.0157 38.8003 45.9198C38.7984 45.3797 38.9725 44.9433 39.3737 44.5891C39.4422 44.5284 39.5009 44.458 39.5635 44.3934C41.634 42.2394 44.1767 41.1625 47.1917 41.1625C48.8786 41.1625 50.5713 41.2271 52.2543 41.1409C53.4304 41.0803 53.7436 41.548 53.7083 42.6478C53.6398 44.6987 53.6888 46.7535 53.6888 48.8063H53.6848H53.6868Z" fill="#FEFEFE"/>
</g>
<defs>
<clipPath id="clip0_273_236">
<rect width="75.002" height="75" fill="white"/>
</clipPath>
</defs>
</svg>
