<svg width="75" height="75" viewBox="0 0 75 75" fill="none" xmlns="http://www.w3.org/2000/svg">
<g clip-path="url(#clip0_273_74)">
<path d="M74.998 75H12.0114C11.8784 74.955 11.7472 74.8904 11.6103 74.8669C6.04094 73.9022 2.34632 70.7496 0.573371 65.3799C0.317017 64.6049 0.187862 63.785 0 62.9866C0 41.993 0 20.9975 0 -1.74356e-05C20.3811 -1.74356e-05 40.7602 -0.00980191 61.1413 0.0215084C62.515 0.0234653 63.9357 0.180017 65.2547 0.547913C71.1351 2.19171 74.9941 7.4264 74.9961 13.6376C75.002 34.0911 74.998 54.5445 74.998 74.998V75ZM3.39717 3.39715C3.39717 3.74548 3.39717 3.9627 3.39717 4.17991C3.39717 23.2205 3.39326 42.2592 3.40109 61.2997C3.40304 67.2096 7.80997 71.5969 13.7472 71.5989C32.7624 71.6067 51.7795 71.6028 70.7946 71.5989C71.051 71.5989 71.3073 71.5754 71.6028 71.5598C71.6028 71.2525 71.6028 71.0353 71.6028 70.8161C71.6028 51.7755 71.6028 32.7369 71.595 13.6963C71.595 12.9918 71.5422 12.2756 71.4052 11.5868C70.4228 6.63973 66.3681 3.39715 61.1804 3.3952C42.2142 3.39128 23.246 3.3952 4.27973 3.3952C4.01751 3.3952 3.75528 3.3952 3.39913 3.3952L3.39717 3.39715Z" fill="white"/>
<path d="M46.0184 32.2987C46.0184 30.5551 46.0184 28.8761 46.0184 27.1952C46.0184 26.2187 46.0576 25.2422 46.0047 24.2676C45.9695 23.6023 46.2219 23.4262 46.8501 23.4516C47.9225 23.4947 48.9988 23.5103 50.0692 23.4477C50.7854 23.4066 50.9146 23.6943 50.9126 24.3322C50.893 30.968 50.895 37.6039 50.9048 44.2397C50.9067 45.8737 50.9752 47.5077 50.9752 49.1417C50.9752 49.3766 50.8265 49.7445 50.6445 49.8286C47.1064 51.4528 43.4177 52.0771 39.6135 51.0497C35.8426 50.0321 33.8152 47.451 33.3103 43.5763C32.7311 39.1224 34.6821 35.1108 38.4844 33.2557C40.5743 32.2361 42.8032 31.9445 45.1085 32.1852C45.3746 32.2126 45.6407 32.2498 46.0204 32.2987H46.0184ZM46.0184 41.7114C46.0184 39.9561 46.0125 38.2027 46.0243 36.4474C46.0262 36.099 45.9793 35.8583 45.5859 35.737C43.0381 34.9542 39.8425 35.8348 38.6918 38.8191C38.1791 40.1498 38.1302 41.5353 38.2691 42.9266C38.6957 47.1751 42.1007 48.5253 45.3863 47.7543C45.8697 47.6408 46.0419 47.4177 46.0321 46.903C45.9969 45.1732 46.0184 43.4433 46.0184 41.7114Z" fill="white"/>
<path d="M28.8525 38.455C28.8525 42.406 28.8408 46.357 28.8662 50.306C28.8701 50.9361 28.7136 51.1729 28.0502 51.1435C26.9308 51.0907 25.8076 51.1122 24.6863 51.1377C24.2049 51.1494 23.9838 51.034 23.9838 50.4939C23.9975 42.3982 23.9955 34.3025 23.9857 26.2049C23.9857 25.7704 24.1207 25.5943 24.5728 25.6021C25.7665 25.6237 26.9641 25.6432 28.1559 25.5963C28.7938 25.5708 28.8623 25.8624 28.8603 26.3849C28.8447 30.4083 28.8525 34.4316 28.8525 38.455Z" fill="white"/>
</g>
<defs>
<clipPath id="clip0_273_74">
<rect width="75" height="75" fill="white"/>
</clipPath>
</defs>
</svg>
