<svg width="75" height="75" viewBox="0 0 75 75" fill="none" xmlns="http://www.w3.org/2000/svg">
<g clip-path="url(#clip0_273_86)">
<path d="M0 62.9886C0 41.993 0 20.9975 0 -1.74355e-05C20.3811 -1.74355e-05 40.7602 -0.00980191 61.1413 0.0215084C62.515 0.0234653 63.9357 0.180017 65.2547 0.547913C71.1351 2.19171 74.9941 7.4264 74.9961 13.6376C75.002 34.0911 74.998 54.5445 74.998 74.998H12.0114C11.8784 74.953 11.7472 74.8884 11.6103 74.865C6.04094 73.9002 2.34632 70.7477 0.573371 65.3779C0.317017 64.603 0.187862 63.7831 0 62.9846L0 62.9886ZM3.39717 3.39715C3.39717 3.74548 3.39717 3.9627 3.39717 4.17991C3.39717 23.2205 3.39326 42.2592 3.40109 61.2998C3.40304 67.2096 7.80997 71.5969 13.7472 71.5989C32.7624 71.6067 51.7795 71.6028 70.7946 71.5989C71.051 71.5989 71.3073 71.5754 71.6028 71.5598C71.6028 71.2525 71.6028 71.0353 71.6028 70.8161C71.6028 51.7755 71.6028 32.7369 71.595 13.6963C71.595 12.9918 71.5422 12.2756 71.4052 11.5868C70.4228 6.63973 66.3681 3.3952 61.1804 3.3952C42.2142 3.39128 23.246 3.3952 4.27973 3.3952C4.01751 3.3952 3.75528 3.3952 3.39913 3.3952L3.39717 3.39715Z" fill="white"/>
<path d="M26.9523 46.6095H38.4256C38.1947 47.7797 37.997 48.8716 37.7407 49.9499C37.7074 50.0927 37.3728 50.2552 37.1751 50.2571C32.3435 50.2747 27.512 50.2649 22.6804 50.2767C22.0835 50.2767 22.0933 49.9225 22.0953 49.5076C22.0992 46.5547 22.0972 43.6017 22.0972 40.6488C22.0972 35.6704 22.0972 30.6921 22.0972 25.7137C22.0972 25.0627 22.4332 24.7372 23.105 24.7372C24.1305 24.7372 25.1559 24.7685 26.1793 24.7255C26.7801 24.7001 26.9699 24.8762 26.966 25.4965C26.9386 29.5473 26.9523 33.5981 26.9523 37.6488C26.9523 40.3337 26.9523 43.0166 26.9523 45.7015V46.6095Z" fill="white"/>
<path d="M41.6858 31.6235C43.0478 31.6235 44.3824 31.6078 45.7131 31.647C45.8618 31.6509 46.077 31.9483 46.1338 32.1479C46.306 32.7487 46.4156 33.3671 46.5995 34.2046C46.8559 33.868 47.0066 33.6234 47.2042 33.4238C48.5486 32.0579 50.2002 31.3789 52.1004 31.238C52.662 31.1969 52.9614 31.3084 52.9281 31.9738C52.8773 32.9972 52.8812 34.0246 52.9281 35.0481C52.9555 35.6567 52.7207 35.7838 52.163 35.7643C50.4018 35.7056 48.7873 36.138 47.4117 37.3122C46.9283 37.7251 46.7209 38.1987 46.7228 38.8405C46.7424 42.3805 46.715 45.9186 46.7463 49.4586C46.7522 50.1103 46.5624 50.306 45.9185 50.2766C44.8227 50.2277 43.7209 50.2316 42.6251 50.2766C42.0087 50.3021 41.8384 50.0868 41.8423 49.486C41.8658 45.7034 41.8756 41.9187 41.8462 38.136C41.8306 36.1107 41.7249 34.0872 41.6642 32.0638C41.6603 31.9483 41.676 31.8309 41.6877 31.6254L41.6858 31.6235Z" fill="white"/>
</g>
<defs>
<clipPath id="clip0_273_86">
<rect width="75" height="75" fill="white"/>
</clipPath>
</defs>
</svg>
