<svg width="75" height="75" viewBox="0 0 75 75" fill="none" xmlns="http://www.w3.org/2000/svg">
<g clip-path="url(#clip0_273_61)">
<path d="M74.8535 75H11.9883C11.7969 74.9004 11.6152 74.75 11.4102 74.7109C5.98242 73.6816 2.34961 70.5762 0.589844 65.3301C0.324219 64.5312 0.193359 63.6875 0 62.8652C0 41.9219 0 20.9785 0 0C20.9551 0 41.9102 0 62.8652 0C63.6191 0.171875 64.3828 0.306641 65.125 0.521484C70.9766 2.21094 74.8496 7.41016 74.8516 13.6035C74.8574 34.0684 74.8535 54.5352 74.8535 75ZM3.39062 3.38867C3.39062 3.73242 3.39062 3.95117 3.39062 4.16797C3.39062 23.1719 3.38672 42.1738 3.39453 61.1777C3.39648 67.0781 7.79297 71.457 13.7188 71.4609C32.6973 71.4688 51.6777 71.4648 70.6562 71.4609C70.9121 71.4609 71.168 71.4375 71.4648 71.4219C71.4648 71.1172 71.4648 70.9004 71.4648 70.6836C71.4648 51.6797 71.4648 32.6758 71.457 13.6738C71.457 12.9707 71.4043 12.2559 71.2676 11.5684C70.2891 6.63086 66.2402 3.39062 61.0645 3.39062C42.1348 3.38672 23.2031 3.39062 4.27344 3.39062C4.01172 3.39062 3.75 3.39062 3.39062 3.39062V3.38867Z" fill="white"/>
<path d="M25.373 41.2226C25.373 42.7148 25.373 44.1211 25.373 45.5293C25.373 46.7949 25.3535 48.0625 25.3809 49.3281C25.3926 49.8711 25.2031 50.0469 24.6621 50.0293C23.5195 49.9922 22.373 49.9902 21.2285 50.0293C20.6406 50.0508 20.4805 49.8437 20.4844 49.2734C20.5059 45.6934 20.4961 42.1133 20.4961 38.5332C20.4961 34.1504 20.5098 29.7656 20.4805 25.3828C20.4766 24.7129 20.6621 24.5059 21.3359 24.5156C24.3047 24.5586 27.2793 24.4336 30.2402 24.5937C33.4023 24.7637 36.0449 26.0351 37.5449 29.0273C39.8848 33.6973 37.6582 38.791 32.5723 40.4961C30.6016 41.1562 28.5664 41.2559 26.5156 41.2226C26.1562 41.2168 25.7969 41.2226 25.3711 41.2226H25.373ZM25.373 37.5586C27.2402 37.5801 28.9902 37.7871 30.6855 37.1621C32.7676 36.3945 33.6992 34.9297 33.6016 32.5625C33.5098 30.3691 32.4082 28.8164 30.3262 28.3867C28.9395 28.0996 27.4805 28.1738 26.0547 28.0625C25.4922 28.0195 25.3574 28.2578 25.3633 28.7832C25.3848 31.3379 25.373 33.8926 25.373 36.4453C25.373 36.7832 25.373 37.1191 25.373 37.5547V37.5586Z" fill="white"/>
<path d="M53.2266 35.744C52.0098 35.33 50.918 34.826 49.7734 34.6132C48.873 34.4471 47.8926 34.5604 46.9707 34.705C46.3516 34.8026 45.9043 35.2928 45.834 35.9823C45.7676 36.6522 46.0527 37.1835 46.625 37.5116C47.2969 37.8964 48.0019 38.2245 48.6953 38.5721C49.7793 39.1151 50.9336 39.5526 51.9394 40.2147C55.3105 42.4296 55.1738 47.1659 51.7187 49.2655C50.1172 50.2382 48.3398 50.4569 46.5176 50.3964C44.8789 50.3417 43.2598 50.1151 41.8027 49.2987C41.5508 49.1581 41.3047 48.7655 41.291 48.4784C41.2324 47.3475 41.2676 46.2108 41.2676 44.9608C41.5547 45.0975 41.709 45.1464 41.8359 45.2362C43.3105 46.2753 44.9531 46.8221 46.7519 46.8456C47.2773 46.8534 47.8184 46.7655 48.3281 46.6307C48.9668 46.4628 49.4883 46.1034 49.584 45.369C49.6797 44.6268 49.4336 44.0077 48.7949 43.6112C48.2402 43.2675 47.6523 42.9745 47.0664 42.6854C46.043 42.1815 44.9707 41.7675 43.9883 41.1932C41.918 39.9843 41.0449 38.1112 41.4082 35.7616C41.7656 33.4569 43.2266 32.0331 45.4297 31.4315C47.7871 30.7889 50.1484 30.9296 52.4805 31.6522C53.0176 31.8182 53.2676 32.1014 53.2402 32.703C53.1934 33.7206 53.2266 34.7421 53.2266 35.744Z" fill="white"/>
</g>
<defs>
<clipPath id="clip0_273_61">
<rect width="74.8555" height="75" fill="white"/>
</clipPath>
</defs>
</svg>
