<svg width="76" height="75" viewBox="0 0 76 75" fill="none" xmlns="http://www.w3.org/2000/svg">
<g clip-path="url(#clip0_273_70)">
<path d="M75.0078 12.0139V74.9998H12.0357C11.9496 74.9606 11.8674 74.8941 11.7774 74.8843C5.337 74.1272 -0.027407 68.5026 -1.76495e-05 61.0781C0.0762814 41.0408 0.0254154 21.0035 0.0254154 0.966223C0.0254154 0.65907 0.0254154 0.351918 0.0254154 0.0271576C0.268007 0.0154193 0.410823 0.003681 0.555596 0.003681C20.9783 0.003681 41.403 -0.0119701 61.8257 0.0173757C67.6068 0.0252012 72.7775 3.99471 74.4209 9.54302C74.6615 10.353 74.8141 11.1903 75.0078 12.0139ZM3.4217 3.39801C3.4217 3.73255 3.4217 3.97123 3.4217 4.20795C3.4217 23.2475 3.4217 42.287 3.42953 61.3266C3.42953 62.0309 3.48431 62.7469 3.62517 63.4356C4.62292 68.3578 8.6609 71.5996 13.7964 71.5996C32.7831 71.6054 51.7699 71.6015 70.7566 71.6015H71.6096V70.7896C71.6096 51.7736 71.6115 32.7594 71.6017 13.7434C71.6017 13.0156 71.5489 12.2741 71.4041 11.562C70.4123 6.63779 66.3762 3.39801 61.2349 3.39801C42.2481 3.39214 23.2614 3.39605 4.27469 3.39605H3.4217V3.39801Z" fill="white"/>
<path d="M26.0082 41.5049C26.0082 44.0501 26.016 46.4643 26.0062 48.8765C25.9984 50.5571 26.2175 50.3379 24.5272 50.3536C23.6488 50.3614 22.7704 50.336 21.8919 50.3614C21.3755 50.3771 21.1446 50.2206 21.1466 49.6571C21.1583 41.5792 21.1583 33.5032 21.1466 25.4253C21.1466 24.9186 21.3089 24.7484 21.8215 24.7504C24.5291 24.7621 27.2387 24.6819 29.9425 24.7641C31.1691 24.8012 32.4271 25.0145 33.6029 25.3725C37.1381 26.4485 39.3194 29.7489 39.0612 33.4387C38.7775 37.4943 36.6392 39.9769 32.339 40.9845C30.8365 41.3366 29.2519 41.3562 27.7044 41.497C27.1781 41.5459 26.644 41.5049 26.0082 41.5049ZM26.059 28.2738V37.7466C27.8217 38.0245 29.9875 37.9071 31.2415 37.4767C33.372 36.743 34.3854 35.172 34.2622 32.7911C34.1448 30.5354 32.9749 28.9742 30.8131 28.5966C29.2734 28.3266 27.6809 28.3736 26.059 28.2758V28.2738Z" fill="white"/>
<path d="M42.6335 31.6425C44.005 31.6425 45.2923 31.6229 46.5776 31.666C46.7557 31.6719 47.0139 31.9614 47.0765 32.1688C47.2604 32.7713 47.366 33.3993 47.6673 34.1936C47.7671 34.0117 47.8356 33.8004 47.9725 33.6556C49.3753 32.1629 51.0949 31.3686 53.153 31.2982C53.6558 31.2806 53.9219 31.3843 53.9004 31.9712C53.8612 33.0198 53.8671 34.0704 53.9004 35.119C53.918 35.6844 53.6891 35.8213 53.1609 35.8057C51.404 35.7548 49.7861 36.1598 48.3971 37.3199C47.8551 37.7719 47.6712 38.302 47.6752 38.9829C47.6908 42.4731 47.6673 45.9613 47.6967 49.4515C47.7025 50.1167 47.5206 50.3573 46.8359 50.326C45.7657 50.2751 44.6877 50.281 43.6176 50.324C42.9622 50.3514 42.7959 50.103 42.7979 49.473C42.8135 44.6173 42.8057 39.7615 42.7842 34.9058C42.7803 33.8591 42.6922 32.8124 42.6355 31.6445L42.6335 31.6425Z" fill="white"/>
</g>
<defs>
<clipPath id="clip0_273_70">
<rect width="75.0078" height="75" fill="white"/>
</clipPath>
</defs>
</svg>
