<svg width="75" height="75" viewBox="0 0 75 75" fill="none" xmlns="http://www.w3.org/2000/svg">
<g clip-path="url(#clip0_273_90)">
<path d="M0 62.9886C0 41.993 0 20.9975 0 -1.74355e-05C20.3811 -1.74355e-05 40.7602 -0.00980191 61.1413 0.0215084C62.515 0.0234653 63.9357 0.180017 65.2547 0.547913C71.1351 2.19171 74.9941 7.4264 74.9961 13.6376C75.002 34.0911 74.998 54.5445 74.998 74.998H12.0114C11.8784 74.953 11.7472 74.8884 11.6103 74.865C6.04094 73.9002 2.34632 70.7477 0.573371 65.3779C0.317017 64.603 0.187862 63.7831 0 62.9846L0 62.9886ZM3.39717 3.39715C3.39717 3.74548 3.39717 3.9627 3.39717 4.17991C3.39717 23.2205 3.39326 42.2592 3.40109 61.2998C3.40304 67.2096 7.80997 71.5969 13.7472 71.5989C32.7624 71.6067 51.7795 71.6028 70.7946 71.5989C71.051 71.5989 71.3073 71.5754 71.6028 71.5598C71.6028 71.2525 71.6028 71.0353 71.6028 70.8161C71.6028 51.7755 71.6028 32.7369 71.595 13.6963C71.595 12.9918 71.5422 12.2756 71.4052 11.5868C70.4228 6.63973 66.3681 3.3952 61.1804 3.3952C42.2142 3.39128 23.246 3.3952 4.27973 3.3952C4.01751 3.3952 3.75528 3.3952 3.39913 3.3952L3.39717 3.39715Z" fill="white"/>
<path d="M57.4407 17.5182C57.4975 17.4203 57.3801 17.2364 57.5914 17.2148C57.7578 18.0387 57.8791 18.8684 57.8673 19.7138C57.8536 20.2206 57.9124 20.7275 57.8439 21.2324C57.7265 21.7881 57.8126 22.3654 57.6854 22.9192C57.6149 23.1325 57.5934 23.3595 57.4975 23.5669C57.4897 23.5767 57.476 23.5963 57.474 23.5963C57.1296 23.3967 56.6365 23.4045 56.4916 22.9231C56.4271 22.7137 56.2157 22.6217 56.1375 22.428C56.1609 22.1619 56.3038 21.9368 56.3899 21.6942C56.8654 20.3341 57.2118 18.9408 57.4447 17.5201L57.4407 17.5182Z" fill="#9C5BFD"/>
<path d="M21.4378 50.3881C19.3713 52.4624 18.1072 54.9985 17.1972 57.7402C17.1268 57.7304 17.0974 57.6834 17.0798 57.6227C17.0524 57.4427 17.0837 57.2666 17.1229 57.0924C17.753 54.4819 18.978 52.165 20.6179 50.0554C20.7353 49.9047 20.8292 49.7208 21.0406 49.6719C21.2754 49.8539 21.5631 50.0085 21.4378 50.3901V50.3881Z" fill="#EBF50E"/>
<path d="M36.0441 44.6017C35.7564 44.6819 35.4707 44.7602 35.1831 44.8404C34.5803 44.3062 34.0324 43.7152 33.4492 43.1594C33.2144 42.9364 32.9639 42.7289 32.7487 42.4843C32.6352 42.3552 32.5178 42.2319 32.5706 42.0381C32.6078 41.9657 32.6684 41.9188 32.7408 41.8836C32.9796 41.8209 33.1909 41.6585 33.4551 41.682C33.9091 41.9853 34.2672 42.3963 34.6684 42.7622C35.0872 43.1438 35.4707 43.5606 35.866 43.9676C36.0284 44.134 36.3102 44.3003 36.0441 44.6017Z" fill="#FAAA03"/>
<path d="M36.0441 44.6015C36.138 44.3431 35.9678 44.1925 35.8132 44.0379C35.2574 43.4821 34.7036 42.9244 34.1439 42.3725C33.9248 42.1573 33.641 42.0086 33.4669 41.7424C33.735 41.4645 34.0892 41.4137 34.4453 41.3647C34.7721 41.5017 34.9424 41.8129 35.1889 42.0399C35.8093 42.6132 36.3944 43.2238 36.9873 43.8265C37.1086 43.9498 37.2828 44.0731 37.138 44.2903C36.774 44.394 36.41 44.4977 36.048 44.6015H36.0441Z" fill="#FBA202"/>
<path d="M37.1341 44.2904C37.1615 44.0908 37.0128 43.991 36.8953 43.8735C36.0911 43.0595 35.2848 42.2454 34.4786 41.4313C34.5001 41.3139 34.5921 41.2748 34.6899 41.2415C34.9541 41.1945 35.1928 41.0263 35.4766 41.0576C35.8856 41.4333 36.2261 41.8775 36.6605 42.2317C37.1028 42.5937 37.4668 43.0399 37.8914 43.4235C38.0401 43.5585 38.3141 43.7013 38.0714 43.9831C37.7583 44.0849 37.4452 44.1886 37.1321 44.2904H37.1341Z" fill="#FC9B01"/>
<path d="M31.2027 45.8522C30.8133 45.9559 30.4219 46.0597 30.0325 46.1634C29.645 45.5998 29.0717 45.2202 28.6177 44.7251C28.4142 44.5039 28.1128 44.3396 28.1382 43.9697C28.4318 43.7133 28.7566 43.5255 29.1519 43.4785C29.5531 43.729 29.8309 44.1086 30.1695 44.4276C30.508 44.7485 30.8387 45.0773 31.1558 45.4178C31.2654 45.5352 31.465 45.6761 31.2047 45.8503L31.2027 45.8522Z" fill="#F4C707"/>
<path d="M21.4378 50.3881C21.4436 50.0809 21.156 49.94 21.0503 49.6973C21.0014 49.4723 21.201 49.3842 21.3067 49.2512C21.7978 48.625 22.4045 48.1103 22.9563 47.5428C23.0287 47.4684 23.1109 47.4019 23.2264 47.4039C23.5747 47.6876 23.97 47.9263 24.1716 48.3569C23.1951 48.9459 22.2792 49.6191 21.4378 50.392V50.3881Z" fill="#EDEB0C"/>
<path d="M28.8564 46.482C28.3633 46.6366 27.8701 46.7912 27.377 46.9458C27.0306 46.439 26.4455 46.1631 26.1089 45.6464C26.0404 45.5408 25.923 45.4605 25.9426 45.3098C26.2107 44.9654 26.6119 44.7932 26.9543 44.5467C27.0443 44.5153 27.1343 44.486 27.2302 44.5251C27.5414 44.987 27.9856 45.3275 28.3535 45.7384C28.5531 45.9615 28.8134 46.1494 28.8564 46.4801V46.482Z" fill="#F1D409"/>
<path d="M32.6058 42.0499C32.6626 42.4002 32.9639 42.5763 33.187 42.7837C33.8465 43.3923 34.4707 44.0361 35.1067 44.6682C35.1478 44.7093 35.1576 44.7817 35.183 44.8404C34.8778 44.9539 34.5666 45.0341 34.2457 45.0791C33.6253 44.5332 33.0481 43.9422 32.4747 43.3492C32.2947 43.1633 32.1029 42.9892 31.9111 42.815C31.7702 42.6859 31.6097 42.5489 31.7272 42.316C31.9953 42.1418 32.2497 41.9246 32.6078 42.0499H32.6058Z" fill="#F8B004"/>
<path d="M38.0734 43.9831C38.1771 43.7385 37.9775 43.6269 37.8444 43.4997C37.1869 42.8716 36.5157 42.2551 35.8621 41.6231C35.7153 41.4822 35.6155 41.2923 35.4942 41.124C35.6625 40.9186 35.9051 40.8951 36.1419 40.8579C36.4355 40.899 36.6586 41.0458 36.8621 41.2669C37.1752 41.6074 37.5078 41.9244 37.8601 42.2297C38.2613 42.578 38.6272 42.9851 38.9853 43.3882C39.0616 43.4743 39.0636 43.576 39.0049 43.6758C38.7035 43.8109 38.3924 43.9087 38.0714 43.9831H38.0734Z" fill="#FE9401"/>
<path d="M31.2027 45.8521C31.3417 45.6623 31.1753 45.5723 31.0736 45.4686C30.5276 44.9187 29.9777 44.3727 29.4317 43.8228C29.3319 43.723 29.2126 43.6389 29.1617 43.498C29.4004 43.1888 29.7174 43.0361 30.1069 43.0283C30.7585 43.723 31.4239 44.404 32.1303 45.0439C32.2731 45.1731 32.4786 45.2924 32.3729 45.5488C31.9835 45.6486 31.5941 45.7504 31.2047 45.8502L31.2027 45.8521Z" fill="#F5C106"/>
<path d="M25.0933 38.8326C25.3848 38.5684 25.6882 38.3218 26.0345 38.132C26.1265 38.0694 26.2146 38.0968 26.2831 38.1614C26.8427 38.6956 27.4102 39.222 27.8701 39.8502C27.8701 39.9656 27.7879 40.0185 27.7057 40.0732C27.3633 40.2298 27.0795 40.5155 26.6783 40.5449C26.0835 40.0361 25.4064 39.6016 25.0933 38.8306V38.8326Z" fill="#76E966"/>
<path d="M28.8564 46.4823C28.4376 45.9187 27.923 45.4432 27.4298 44.9481C27.3203 44.8385 27.1931 44.7367 27.2185 44.5547C27.4357 44.2084 27.7508 44.0342 28.1559 44.0166C28.5296 44.5978 29.0795 45.0107 29.5648 45.4862C29.7585 45.6761 30.0658 45.8072 30.0325 46.1614C29.6411 46.269 29.2478 46.3747 28.8564 46.4823Z" fill="#F3CD08"/>
<path d="M31.7467 42.367C31.7585 42.5999 31.9444 42.7017 32.0892 42.8445C32.7682 43.506 33.4394 44.1752 34.1087 44.8464C34.1694 44.9071 34.1987 45.001 34.2418 45.0793C33.9345 45.1771 33.6293 45.2769 33.3064 45.3141C32.5902 44.6194 31.8367 43.9639 31.1557 43.2339C31.0168 43.0852 30.8466 42.9502 30.8505 42.7134C31.1029 42.4825 31.3749 42.2985 31.7448 42.367H31.7467Z" fill="#F7B605"/>
<path d="M24.1716 48.3529C23.8702 48.0417 23.4984 47.801 23.2401 47.4468C23.2342 47.4351 23.2186 47.4175 23.2225 47.4136C23.6471 46.8676 24.1461 46.4136 24.8017 46.1572C25.1696 46.441 25.4592 46.8069 25.8134 47.1063C25.9191 47.1963 26.0796 47.2981 25.97 47.4918C25.3712 47.7795 24.7704 48.0672 24.1716 48.3548V48.3529Z" fill="#EFE10B"/>
<path d="M25.0932 38.8325C25.5512 39.4626 26.1343 39.9714 26.7018 40.4939C26.4044 40.9029 25.9778 41.1064 25.512 41.2473C24.9739 40.7855 24.3457 40.4137 23.9915 39.764C24.3261 39.4137 24.6862 39.0967 25.0932 38.8325Z" fill="#7FEB5F"/>
<path d="M27.874 39.8717C27.4279 39.496 27.0365 39.0655 26.6451 38.6369C26.4651 38.4393 26.287 38.2416 26.0326 38.134C26.3222 37.8914 26.6275 37.6663 26.9758 37.5098C27.3535 37.5704 27.5629 37.8855 27.8349 38.0968C28.2889 38.4471 28.6098 38.9403 29.0325 39.3297C28.7253 39.678 28.3476 39.8796 27.874 39.8717Z" fill="#6EE86B"/>
<path d="M57.4407 17.5181C57.4153 18.5807 57.1472 19.5982 56.8556 20.606C56.6678 21.2538 56.4173 21.8819 56.1962 22.5179C56.2294 22.8447 56.0239 23.0933 55.9104 23.3692C55.8517 23.5101 55.7735 23.6432 55.7285 23.7899C55.5817 24.0991 55.4408 24.4142 55.1864 24.6588C54.8107 24.651 54.7617 24.2811 54.5563 24.0854C55.9809 22.154 56.9124 20.0072 57.3683 17.6511C57.3781 17.6042 57.4173 17.5631 57.4427 17.52L57.4407 17.5181Z" fill="#2F0F97"/>
<path d="M30.8798 42.7153C31.4258 43.5117 32.2105 44.0733 32.8622 44.7661C33.0207 44.9363 33.3083 45.0127 33.3103 45.314C33.007 45.4256 32.6939 45.5058 32.3729 45.5488C32.2908 45.1868 31.9737 45.0107 31.7252 44.8091C31.2066 44.3864 30.8466 43.8033 30.2947 43.4197C30.1675 43.3317 30.0932 43.2221 30.1088 43.0636C30.1147 43.001 30.146 42.956 30.193 42.9168C30.4121 42.817 30.6 42.6096 30.8798 42.7153Z" fill="#F6BC05"/>
<path d="M25.968 47.49C25.7684 47.0536 25.3183 46.854 25.0287 46.4998C24.9426 46.3941 24.8017 46.3315 24.7939 46.1691C25.0757 45.7366 25.4592 45.4489 25.968 45.3354C26.3085 45.8501 26.8134 46.2004 27.2361 46.6329C27.3163 46.7151 27.4768 46.7777 27.375 46.946C26.9054 47.128 26.4357 47.308 25.9661 47.49H25.968Z" fill="#F0DB0A"/>
<path d="M43.2944 31.3239C43.5645 31.1928 43.8404 31.0754 44.1378 31.0206C44.2846 30.9541 44.3785 31.0304 44.4764 31.1302C45.0165 31.684 45.5253 32.2691 46.1456 32.7407C46.2982 32.8562 46.4372 33.0108 46.3413 33.2397C46.2591 33.3806 46.1123 33.4354 45.9812 33.5098C45.8442 33.5685 45.717 33.6624 45.5546 33.6331C44.7229 33.1634 44.2063 32.3435 43.4783 31.7584C43.359 31.6625 43.2337 31.5177 43.2964 31.322L43.2944 31.3239Z" fill="#195DC5"/>
<path d="M43.2944 31.3242C43.584 31.8467 44.1554 32.1109 44.4705 32.6001C44.7523 33.0404 45.308 33.1539 45.5683 33.602C45.3707 33.9836 44.9988 34.0365 44.6329 34.1011C44.1613 33.5159 43.5899 33.0326 43.0419 32.5218C42.7817 32.2792 42.4392 32.0678 42.3688 31.6628C42.6662 31.518 42.9735 31.4005 43.2963 31.3242H43.2944Z" fill="#1764CA"/>
<path d="M40.7974 32.1889C41.0204 32.0754 41.2533 31.9913 41.5018 31.9561C41.6603 31.9854 41.7934 32.0715 41.8971 32.185C42.2552 32.5823 42.7171 32.866 43.0282 33.322C43.2161 33.5979 43.5566 33.7642 43.7405 34.0675C43.8208 34.1987 43.9421 34.3102 43.8756 34.4863C43.6799 34.6781 43.449 34.7799 43.1711 34.7583C42.8971 34.639 42.7523 34.3748 42.5566 34.1752C42.0145 33.6233 41.3903 33.1498 40.9167 32.5314C40.8404 32.4316 40.7289 32.3416 40.7974 32.1889Z" fill="#1373D2"/>
<path d="M54.5563 24.0854C54.8929 24.1148 54.8675 24.5434 55.1532 24.6295C55.2491 24.7723 55.1277 24.8702 55.0788 24.9837C54.8498 25.3555 54.6385 25.7371 54.3919 26.0971C54.1923 26.3457 54.0769 26.6686 53.7579 26.8094C53.2237 26.7703 53.0789 26.3359 52.889 25.9484C53.4742 25.3535 54.0319 24.7332 54.5563 24.0854Z" fill="#2C189C"/>
<path d="M45.8696 30.3086C46.1397 30.156 46.4097 30.0053 46.715 29.925C47.0242 29.9035 47.1553 30.1736 47.3373 30.334C47.8207 30.7567 48.3236 31.1677 48.6543 31.7371C48.4566 32.0992 48.1338 32.2831 47.7463 32.3751C47.2571 31.7958 46.6837 31.2968 46.1436 30.7685C46.0086 30.6374 45.8129 30.5512 45.8696 30.3086Z" fill="#1F47B8"/>
<path d="M46.5898 40.0302C46.3197 40.2395 46.0321 40.4196 45.7248 40.5644C45.0693 39.9656 44.4705 39.31 43.8677 38.6584C43.8247 38.6114 43.8169 38.541 43.8208 38.4744C43.8345 38.4392 43.856 38.4098 43.8834 38.3844C44.0399 38.2905 44.2082 38.22 44.3746 38.1457C44.4626 38.1202 44.5527 38.0967 44.6427 38.0811C44.6994 38.0733 44.7562 38.0811 44.809 38.1026C45.0751 38.31 45.3315 38.5292 45.535 38.8012C45.7953 39.1456 46.2101 39.3296 46.4469 39.6955C46.5135 39.7992 46.6485 39.8736 46.5898 40.0302Z" fill="#FE4B5B"/>
<path d="M23.9915 39.7642L25.5277 41.1966C25.4768 41.4686 25.2127 41.5156 25.0404 41.6565C24.9211 41.7524 24.7958 41.8443 24.6686 41.9344C24.5845 41.9813 24.4984 42.0165 24.3986 41.9911C23.9544 41.5391 23.4788 41.1222 22.9935 40.7133C23.3125 40.3825 23.6002 40.0186 23.9915 39.7642Z" fill="#88EC58"/>
<path d="M39.0068 43.6759C39.0557 43.3667 38.7368 43.2337 38.6037 43.1417C38.2123 42.8736 38.0479 42.4079 37.6116 42.175C37.2867 42.0008 37.0127 41.6818 36.8014 41.3687C36.639 41.128 36.4257 41.0478 36.1967 40.948C36.1791 40.8365 36.2652 40.813 36.3396 40.7797C36.592 40.7328 36.8327 40.6271 37.0949 40.6369C37.32 40.7014 37.4628 40.8873 37.5979 41.0439C38.0205 41.5292 38.5352 41.9128 38.9696 42.3785C39.2123 42.6368 39.3962 42.9597 39.635 43.2317C39.6859 43.2904 39.7015 43.3726 39.635 43.4431C39.4373 43.5526 39.2358 43.6446 39.0088 43.6759H39.0068Z" fill="#FE8C09"/>
<path d="M46.5898 40.0305C46.2004 39.4532 45.5937 39.0853 45.1613 38.5491C45.0399 38.4004 44.8619 38.3006 44.7797 38.1147C44.8071 37.9366 44.9754 37.921 45.0889 37.8407C45.2356 37.7703 45.3804 37.694 45.537 37.645C45.627 37.6176 45.717 37.5981 45.809 37.6353C46.2689 38.1656 46.7463 38.6783 47.3021 39.1127C47.4313 39.2145 47.4939 39.3084 47.443 39.4669C47.2003 39.7193 46.8598 39.8211 46.5898 40.0305Z" fill="#FE4267"/>
<path d="M49.531 28.4474C49.9283 28.191 50.3275 27.9347 50.7247 27.6763C50.9556 27.6333 51.0085 27.8564 51.1415 27.9601C51.4664 28.2125 51.7443 28.5119 51.9947 28.8348C52.0241 29.0266 51.9145 29.1558 51.7795 29.2575C51.5857 29.4062 51.4155 29.5824 51.2355 29.7467C51.1748 29.7937 51.1083 29.8289 51.03 29.8328C50.8852 29.8152 50.7286 29.7781 50.6543 29.6587C50.3627 29.1753 49.8813 28.872 49.531 28.4474Z" fill="#262DA9"/>
<path d="M47.5173 29.5469C47.8559 29.365 48.1964 29.1849 48.5349 29.0029C48.6406 29.0127 48.76 29.0284 48.8187 29.1106C49.2198 29.6585 49.8813 29.9285 50.2766 30.4823C50.12 30.8933 49.7365 31.0459 49.3999 31.2494C49.257 31.2671 49.1494 31.1947 49.0574 31.1027C48.5408 30.588 48.0477 30.0479 47.5173 29.5469Z" fill="#223BB1"/>
<path d="M46.2689 33.2183C46.3628 33.0266 46.216 32.9189 46.1025 32.8328C45.445 32.3319 44.8893 31.7311 44.3433 31.1166C44.2983 31.0657 44.2083 31.0521 44.1378 31.0227C44.3785 30.8701 44.6388 30.7722 44.9147 30.7057C45.355 30.6979 45.5429 31.0931 45.8129 31.3201C46.1867 31.6352 46.535 31.9894 46.8951 32.326C47.0203 32.4434 47.1397 32.5667 47.0849 32.7624C46.8579 32.9933 46.6642 33.2849 46.2708 33.2183H46.2689Z" fill="#1B55C1"/>
<path d="M40.7974 32.189C41.0968 32.5901 41.449 32.9385 41.8052 33.2927C42.2631 33.7486 42.7895 34.1517 43.1476 34.7055C43.1691 34.7388 43.1711 34.7721 43.1495 34.8053C43.0263 34.9247 42.8697 34.9756 42.7132 35.0284C42.6408 35.048 42.5684 35.0597 42.494 35.0343C42.0263 34.4864 41.4255 34.0774 40.95 33.5255C40.6232 33.1459 40.2201 32.7976 39.7856 32.5119C40.1105 32.3651 40.449 32.2633 40.7954 32.187L40.7974 32.189Z" fill="#117CD7"/>
<path d="M50.2355 30.4844C50.0554 30.3024 49.7188 30.2809 49.6836 29.9482C49.6817 29.9267 49.6562 29.8915 49.6386 29.8895C49.0613 29.8523 48.985 29.1948 48.5349 29.003C48.8676 28.8171 49.1983 28.6312 49.531 28.4453C49.94 28.6077 50.2041 28.958 50.4781 29.2633C50.6562 29.4609 50.7951 29.6801 51.0495 29.7858C50.9928 30.1361 50.6836 30.2554 50.4468 30.4413C50.3822 30.4805 50.3098 30.4883 50.2374 30.4824L50.2355 30.4844Z" fill="#2434AD"/>
<path d="M47.0496 32.741C47.034 32.4299 46.7405 32.3144 46.5643 32.1559C46.0966 31.7313 45.6407 31.2929 45.1789 30.8604C45.1065 30.7919 45.0027 30.7567 44.9127 30.7058C45.2141 30.5297 45.535 30.4084 45.8677 30.3105C46.1984 30.7567 46.6759 31.062 47.0183 31.4925C47.2512 31.788 47.6974 31.8956 47.7502 32.3418C47.7483 32.4494 47.6798 32.516 47.6015 32.5747C47.4195 32.6353 47.2884 32.8702 47.0477 32.741H47.0496Z" fill="#1D4FBD"/>
<path d="M35.0265 33.9286C35.2183 33.8249 35.4277 33.7799 35.639 33.7349C35.8934 33.7955 36.0636 33.9853 36.228 34.1634C36.8112 34.7877 37.4452 35.3571 38.0558 35.952C38.1967 36.089 38.4276 36.181 38.3043 36.451C38.136 36.5567 37.9383 36.5743 37.7564 36.6448C37.6585 36.6663 37.5626 36.6682 37.4687 36.6291C36.8347 35.9481 36.1752 35.2945 35.4961 34.6585C35.2907 34.4667 35.0598 34.2515 35.0265 33.9306V33.9286Z" fill="#02B1F7"/>
<path d="M38.3062 36.406C38.2808 36.3473 38.273 36.2651 38.2299 36.2357C37.5469 35.7602 37.089 35.0479 36.4139 34.5528C36.1302 34.3454 35.8992 34.0088 35.6409 33.7368C35.9032 33.6605 36.1654 33.5841 36.4276 33.5078C36.5391 33.5548 36.637 33.6291 36.6898 33.7309C36.9599 34.2416 37.4726 34.5078 37.8581 34.9011C38.2358 35.2847 38.5939 35.6839 38.9833 36.0557C39.0224 36.0929 39.0361 36.1438 39.0244 36.1985C38.9246 36.3277 38.7661 36.3531 38.6311 36.4177C38.5234 36.449 38.4119 36.5234 38.3082 36.4099L38.3062 36.406Z" fill="#05A8F2"/>
<path d="M44.6368 41.1849C44.4196 41.3473 44.1769 41.4647 43.9245 41.5645C43.402 41.2651 43.0517 40.774 42.6055 40.3884C42.2572 40.0871 42.0009 39.6957 41.6525 39.3963C41.633 39.2398 41.7602 39.2084 41.858 39.1536C42.0224 39.0989 42.175 39.0108 42.3492 38.9873C42.3883 38.9834 42.4255 38.9834 42.4646 38.9873C42.7562 39.0343 42.8599 39.3004 43.0321 39.4824C43.5683 40.0479 44.2298 40.4961 44.6368 41.1849Z" fill="#FE5E44"/>
<path d="M35.0265 33.9287C35.367 34.3788 35.817 34.735 36.1712 35.1576C36.5802 35.6469 37.2162 35.9326 37.4452 36.5764C37.3728 36.7525 37.2064 36.7682 37.0538 36.8093C36.9736 36.819 36.8972 36.8093 36.8229 36.776C36.0871 36.0559 35.3493 35.3377 34.5979 34.6312C34.455 34.4982 34.23 34.4179 34.2437 34.1635C34.4961 34.0618 34.7505 33.9639 35.0245 33.9287H35.0265Z" fill="#01B8FB"/>
<path d="M38.7739 32.827C38.9403 32.7252 39.1242 32.6783 39.314 32.6587C39.6115 32.7115 39.817 32.9209 40.0166 33.1166C40.541 33.6313 41.0107 34.1949 41.6173 34.6273C41.7817 34.7447 42.0048 34.9483 41.9245 35.2418C41.811 35.3886 41.6447 35.4414 41.4784 35.4981C41.404 35.5158 41.3277 35.5314 41.2533 35.4923C40.6251 34.8661 40.0087 34.2281 39.3375 33.6469C39.1046 33.4454 39.0107 33.1342 38.7446 32.964C38.7074 32.9405 38.7328 32.8681 38.772 32.827H38.7739Z" fill="#0D88DF"/>
<path d="M41.6349 39.3727C41.721 39.3962 41.8463 39.3903 41.8874 39.447C42.4783 40.2376 43.2905 40.8169 43.9245 41.5664C43.7308 41.6994 43.5292 41.8188 43.3002 41.8814C42.8873 41.6583 42.5566 41.3296 42.2318 41.0008C41.8247 40.5899 41.4549 40.1437 40.997 39.7856C40.9363 39.7386 40.8835 39.6799 40.86 39.6016C40.907 39.4353 41.0674 39.4509 41.1829 39.3942C41.3316 39.3629 41.4784 39.269 41.633 39.3727H41.6349Z" fill="#FE653B"/>
<path d="M47.5173 29.5474C47.805 29.6687 48.032 29.8585 48.2375 30.0973C48.5349 30.4417 48.8637 30.7587 49.1787 31.0894C49.2335 31.1481 49.3001 31.1833 49.3823 31.1853C49.4175 31.2088 49.4253 31.2401 49.4136 31.2792C49.1768 31.4827 48.9752 31.7469 48.6191 31.745C48.0301 31.0914 47.4175 30.4651 46.7189 29.925C46.9694 29.7646 47.2356 29.6335 47.5213 29.5474H47.5173Z" fill="#2141B5"/>
<path d="M39.0088 36.1812C38.5019 35.6841 38.0147 35.1636 37.4785 34.6979C37.0695 34.3437 36.684 33.9856 36.4257 33.5061C36.592 33.4259 36.7642 33.3652 36.9521 33.3613C37.0871 33.3241 37.1693 33.4122 37.2534 33.4944C37.9794 34.2126 38.7387 34.8975 39.4119 35.6685C39.5039 35.7722 39.6389 35.8563 39.5841 36.0305C39.4804 36.1655 39.3238 36.2008 39.1712 36.2379C39.1086 36.2419 39.0538 36.2301 39.0107 36.1812H39.0088Z" fill="#07A0ED"/>
<path d="M38.7739 32.8271C39.1183 33.1833 39.3767 33.6197 39.7798 33.9191C40.316 34.3163 40.6799 34.8956 41.224 35.285C41.2631 35.3124 41.2592 35.4024 41.2748 35.4631C41.2181 35.6079 41.0792 35.6431 40.9598 35.7057C40.8306 35.7468 40.7015 35.8095 40.5625 35.741C40.4314 35.4572 40.2533 35.2283 40.0009 35.0228C39.3708 34.5081 38.7759 33.9504 38.2162 33.3575C38.134 33.2694 37.997 33.197 38.0597 33.0346C38.2925 32.9446 38.5234 32.8506 38.7739 32.8291V32.8271Z" fill="#0C8FE3"/>
<path d="M54.8889 31.9795C54.5895 32.5078 54.2393 32.9971 53.8361 33.4511C53.5426 33.4648 53.4506 33.1849 53.2569 33.0519C53.0984 32.9442 52.936 32.8366 52.8127 32.684C52.8244 32.3454 53.1728 32.2417 53.2999 31.9834C53.572 31.7388 53.707 31.3513 54.0886 31.2222C54.4721 31.3494 54.6874 31.6586 54.8889 31.9795Z" fill="#FE01B9"/>
<path d="M51.9791 28.8485C51.6347 28.5276 51.2903 28.2086 50.9439 27.8877C50.8695 27.8192 50.7971 27.7468 50.7247 27.6763C51.0672 27.3867 51.4155 27.103 51.8069 26.876C52.1317 27.2341 52.5525 27.4924 52.8499 27.8799C52.8754 27.9562 52.8558 28.0247 52.8264 28.0951C52.6229 28.3945 52.3666 28.6431 52.0809 28.8622C52.0456 28.874 52.0104 28.8701 51.9791 28.8485Z" fill="#2825A4"/>
<path d="M41.901 35.2338C41.7504 34.9911 41.6388 34.7426 41.3688 34.5665C41.0185 34.3395 40.6838 34.0498 40.4314 33.7191C40.1105 33.3003 39.6956 33.0029 39.316 32.6585C39.4627 32.5763 39.6173 32.5195 39.7895 32.5156C39.997 32.5156 40.1261 32.635 40.2827 32.7661C40.7602 33.1634 41.1868 33.6174 41.6212 34.0518C41.9265 34.3571 42.355 34.5625 42.5233 34.9989C42.4725 35.1261 42.3472 35.1574 42.2435 35.2142C42.1456 35.2514 42.0478 35.2846 41.9421 35.267C41.9284 35.2553 41.9167 35.2435 41.903 35.2318L41.901 35.2338Z" fill="#0F82DB"/>
<path d="M39.633 43.4431C39.2925 43.0478 39.0127 42.6134 38.637 42.2318C38.3023 41.8913 37.8366 41.6584 37.6174 41.2044C37.5098 40.9814 37.2202 40.9422 37.1223 40.7093C37.1928 40.4784 37.408 40.5215 37.5744 40.4706C37.6331 40.4667 37.6918 40.4706 37.7485 40.4902C38.6506 41.3062 39.4178 42.2651 40.3766 43.0224C40.4079 43.0478 40.4197 43.0831 40.4099 43.1242C40.1712 43.2787 39.907 43.3746 39.6311 43.4412L39.633 43.4431Z" fill="#FE8710"/>
<path d="M52.848 27.9149C52.4761 27.594 52.0084 27.367 51.8049 26.8758C52.165 26.5666 52.527 26.2555 52.8871 25.9463C53.0202 26.0109 53.0828 26.1224 53.1552 26.2516C53.2883 26.4942 53.4507 26.7349 53.7794 26.7408C53.8205 26.9952 53.5935 27.1185 53.5016 27.3063C53.2667 27.4903 53.2022 27.8601 52.848 27.913V27.9149Z" fill="#2A20A1"/>
<path d="M43.8481 38.4724C44.1045 38.805 44.3726 39.1318 44.6955 39.3999C45.1006 39.7365 45.4058 40.1553 45.7248 40.5643C45.5643 40.7013 45.3824 40.8011 45.1847 40.8754C44.807 40.8109 44.6583 40.4547 44.4039 40.2394C44.1123 39.9909 43.8618 39.6935 43.58 39.4273C43.402 39.259 43.1965 39.0673 43.2396 38.7679C43.2709 38.6661 43.3433 38.6074 43.4313 38.5585C43.5703 38.5252 43.6857 38.3843 43.8501 38.4724H43.8481Z" fill="#FE5352"/>
<path d="M42.678 42.1868C42.4705 42.2846 42.2612 42.3825 42.0537 42.4803C41.6584 42.1829 41.4119 41.7504 41.0635 41.406C40.5978 40.9481 40.1262 40.4902 39.6859 40.0049C39.6839 39.9638 39.6957 39.9285 39.7211 39.8992C39.8542 39.7994 40.0068 39.7681 40.1673 39.7661C40.6076 39.9227 40.9833 40.1673 41.2475 40.5606C41.2768 40.6037 41.3003 40.6585 41.3473 40.6761C41.905 40.8796 42.1163 41.453 42.5449 41.7935C42.6623 41.8854 42.7876 42.0048 42.676 42.1868H42.678Z" fill="#FE6F2D"/>
<path d="M29.0364 39.3178C28.6098 39.2846 28.512 38.8638 28.2478 38.6388C28.0032 38.4294 27.8036 38.173 27.5238 37.993C27.3202 37.8639 27.1578 37.6721 26.9758 37.5077C27.1676 37.3453 27.3809 37.222 27.6099 37.1222C27.6999 37.0537 27.784 37.0889 27.8525 37.1535C28.4181 37.6877 28.964 38.2435 29.5394 38.7699C29.6255 38.8501 29.6881 38.948 29.6666 39.0771C29.5081 39.2904 29.3065 39.3922 29.0364 39.3178Z" fill="#68E771"/>
<path d="M21.5787 42.3472C21.8311 41.9734 22.1129 41.6232 22.4456 41.314C22.4828 41.3257 22.5258 41.3335 22.5513 41.3609C22.9231 41.7641 23.2812 42.1789 23.741 42.4901C23.4964 42.9108 23.1364 43.1985 22.698 43.3981C22.2929 43.081 21.9524 42.6955 21.5787 42.3472Z" fill="#97EE4D"/>
<path d="M42.6779 42.1868C42.6701 42.1496 42.674 42.0948 42.6505 42.0772C42.1809 41.6859 41.9421 41.0538 41.3394 40.8033C41.267 40.7739 41.1672 40.7622 41.1535 40.682C41.0733 40.2299 40.5762 40.2162 40.3551 39.9129C40.3257 39.8718 40.2377 39.8738 40.175 39.8562C40.1848 39.6605 40.359 39.6742 40.4764 39.6174C40.6114 39.5978 40.7465 39.5176 40.8795 39.6233C41.357 39.8425 41.6799 40.2554 42.0224 40.6174C42.3492 40.9638 42.6857 41.2866 43.0439 41.5958C43.1397 41.68 43.2161 41.7876 43.3002 41.8835C43.1065 42.0146 42.8971 42.1144 42.676 42.1888L42.6779 42.1868Z" fill="#FE6A34"/>
<path d="M43.2983 38.7444C43.3061 39.0595 43.5214 39.2728 43.7288 39.443C44.2572 39.8794 44.6759 40.4215 45.1847 40.8735C45.0203 41.0085 44.8403 41.1162 44.6388 41.1847C44.2356 41.0183 44.1378 40.5448 43.7875 40.3295C43.2533 40.0007 42.9813 39.3961 42.4431 39.0732C42.496 38.8247 42.7347 38.8462 42.8971 38.7581C43.0302 38.7366 43.1633 38.6642 43.3002 38.7444H43.2983Z" fill="#FE574C"/>
<path d="M39.5548 36.0169C39.0831 35.467 38.5959 34.9367 38.0577 34.4436C37.7681 34.1794 37.4472 33.9152 37.2065 33.5904C37.136 33.4945 37.0636 33.4064 36.9521 33.3594C37.1204 33.2636 37.3004 33.2107 37.4922 33.2048C37.6174 33.1559 37.729 33.1872 37.8073 33.287C38.4393 34.1109 39.273 34.7332 39.9892 35.4748C40.0753 35.5649 40.1947 35.6412 40.2025 35.788C40.1027 35.9934 39.9031 36.0286 39.7133 36.0795C39.6506 36.0834 39.5959 36.0697 39.5548 36.0169Z" fill="#089BEA"/>
<path d="M40.179 35.8032C39.77 35.3472 39.3082 34.9402 38.8601 34.5273C38.4315 34.132 38.0284 33.725 37.6683 33.269C37.635 33.2279 37.5509 33.226 37.4902 33.2064C37.6624 33.0968 37.862 33.0694 38.0558 33.0322C38.7642 33.7798 39.4882 34.5097 40.314 35.1281C40.5058 35.2709 40.5841 35.4686 40.5665 35.7053C40.5391 35.8247 40.4491 35.8619 40.3414 35.8717C40.2788 35.8717 40.2221 35.8521 40.1771 35.8051L40.179 35.8032Z" fill="#0A95E6"/>
<path d="M23.7039 42.5039C23.1266 42.275 22.79 41.7916 22.4456 41.3161C22.6022 41.0911 22.7763 40.8817 22.9935 40.7114C23.5963 40.9815 24.0366 41.4316 24.4084 41.9619C24.2792 42.2789 24.064 42.4844 23.7039 42.502V42.5039Z" fill="#8FED53"/>
<path d="M47.443 39.4666C47.3412 39.4216 47.3588 39.3042 47.2434 39.2259C46.7698 38.905 46.4606 38.3923 45.9812 38.0596C45.8736 37.9852 45.854 37.7856 45.7953 37.6447C45.8716 37.3551 46.1123 37.3219 46.351 37.2808C46.7894 37.4158 47.0066 37.8072 47.2923 38.1144C47.4156 38.2475 47.5174 38.3981 47.6876 38.4764C47.9205 38.5821 48.0398 38.77 48.0946 39.0107C47.9029 39.1966 47.6876 39.3512 47.4449 39.4686L47.443 39.4666Z" fill="#FE3C6F"/>
<path d="M31.825 35.0302C32.0324 34.952 32.2418 34.8717 32.4492 34.7935C32.7663 35.1124 33.095 35.4216 33.4159 35.7367C33.9404 36.2513 34.4316 36.7993 35.048 37.2122C35.0519 37.2533 35.0402 37.2885 35.0089 37.3179C34.7525 37.4333 34.4883 37.5214 34.2007 37.4959C33.7173 37.1319 33.3494 36.6466 32.9071 36.2396C32.6058 35.9617 32.2986 35.6878 32.0011 35.4021C31.9013 35.3062 31.7213 35.2318 31.823 35.0302H31.825Z" fill="#21C8D0"/>
<path d="M40.4119 43.1239C39.9559 42.9889 39.7231 42.578 39.3982 42.2864C38.9364 41.8715 38.5881 41.3392 38.0714 40.9772C37.9168 40.8696 37.7916 40.7365 37.7388 40.5487C37.772 40.3862 37.9071 40.398 38.0264 40.3804C38.3748 40.4176 38.6272 40.5898 38.8738 40.852C39.2417 41.2414 39.5743 41.6739 40.0068 41.9987C40.269 42.1944 40.4099 42.4997 40.6859 42.6797C40.8131 42.7639 40.772 42.9087 40.7211 43.0339C40.6193 43.0731 40.5332 43.1552 40.4099 43.1239H40.4119Z" fill="#FE8117"/>
<path d="M33.3866 34.4667C33.551 34.3474 33.7467 34.3121 33.9326 34.2495C34.4414 34.8718 35.1224 35.3101 35.6781 35.8874C35.9736 36.1927 36.2417 36.5195 36.5274 36.8307C36.4609 37.0185 36.2789 36.997 36.136 37.0459C36.0578 37.0596 35.9795 37.0596 35.9012 37.042C35.2476 36.6311 34.7682 36.0303 34.2359 35.4882C33.9991 35.2475 33.7545 35.0166 33.5138 34.7798C33.4297 34.6976 33.279 34.6291 33.3846 34.4648L33.3866 34.4667Z" fill="#0CBFEC"/>
<path d="M50.4214 37.1556C50.2374 37.363 50.03 37.543 49.7932 37.6918C49.7306 37.6781 49.6641 37.6683 49.6151 37.6213C49.165 37.183 48.6856 36.7701 48.2864 36.2809C48.261 36.1634 48.349 36.1086 48.4195 36.0441C48.6367 35.9267 48.8206 35.7329 49.0946 35.7349C49.6817 36.0108 50.0633 36.502 50.4253 37.0127C50.4566 37.0577 50.4488 37.1106 50.4214 37.1575V37.1556Z" fill="#FE258C"/>
<path d="M48.2981 36.2631C48.5936 36.3883 48.8226 36.6427 49.0026 36.8599C49.2492 37.1574 49.5858 37.3629 49.7913 37.6916C49.6327 37.8717 49.4547 38.0263 49.2414 38.1417C49.0652 38.2454 48.9302 38.1339 48.8402 38.0223C48.578 37.7034 48.261 37.4529 47.9322 37.2122C47.7443 37.0752 47.6817 36.8639 47.6406 36.6447C47.7835 36.3864 47.989 36.2396 48.2962 36.2651L48.2981 36.2631Z" fill="#FE2B84"/>
<path d="M31.825 35.0303C32.0266 35.3982 32.4101 35.5782 32.6841 35.8737C33.1753 36.404 33.7721 36.8345 34.1713 37.4529C34.0911 37.676 33.9091 37.6682 33.7232 37.6506C33.2046 37.3277 32.7976 36.8698 32.3553 36.4588C32.0755 36.1985 31.825 35.8952 31.553 35.6193C31.4513 35.5175 31.2908 35.4314 31.3515 35.2357C31.51 35.1673 31.6685 35.0988 31.827 35.0303H31.825Z" fill="#29CBC5"/>
<path d="M50.4214 37.1557C50.0417 36.6292 49.623 36.142 49.0672 35.7897C49.214 35.4355 49.5173 35.2868 49.8578 35.1851C50.3861 35.5236 50.8167 35.9561 51.1278 36.504C50.9204 36.7525 50.6816 36.9639 50.4214 37.1537V37.1557Z" fill="#FE1F94"/>
<path d="M40.721 43.0343C40.7132 42.8465 40.588 42.7427 40.4706 42.6077C40.0831 42.1635 39.6134 41.8054 39.2142 41.3729C38.8855 41.0187 38.6311 40.5119 38.0479 40.4688C38.2084 40.2066 38.4941 40.236 38.7407 40.1753C38.7798 40.1772 38.817 40.189 38.8522 40.2046C39.4373 40.8035 40.089 41.3377 40.6075 42.003C40.7328 42.1655 40.8932 42.3005 41.0596 42.4277C41.1829 42.5216 41.3042 42.6332 41.1966 42.8151C41.0537 42.9189 40.8972 42.9952 40.723 43.0343H40.721Z" fill="#FE7D1C"/>
<path d="M33.3866 34.4668C33.6214 34.8386 33.9932 35.0793 34.2887 35.3963C34.7975 35.9423 35.3063 36.4902 35.8856 36.9658C35.7662 37.2397 35.5255 37.1771 35.3063 37.1791C34.6527 36.5724 34.0226 35.9403 33.3749 35.3259C33.1635 35.1263 32.8856 34.9776 32.8445 34.6429C33.0246 34.5803 33.189 34.4746 33.3866 34.4648V34.4668Z" fill="#13C2E2"/>
<path d="M39.6878 40.0008C40.1751 40.2239 40.4608 40.6798 40.8326 41.0321C41.2572 41.4352 41.631 41.8931 42.0224 42.3315C42.0517 42.3647 42.0439 42.4313 42.0537 42.4802C41.9226 42.5369 41.7934 42.5937 41.6623 42.6485C41.177 42.2317 40.7113 41.7953 40.2768 41.3237C40.0087 41.0321 39.7387 40.7405 39.4432 40.4724C39.3317 40.3707 39.2005 40.2787 39.1477 40.1241C39.2925 39.9304 39.4706 39.8756 39.6898 39.9988L39.6878 40.0008Z" fill="#FE7427"/>
<path d="M52.8225 32.6702C53.253 32.8091 53.4918 33.2005 53.8362 33.451C53.6972 33.8032 53.392 34.0283 53.1767 34.3238C52.9184 34.4725 52.7266 34.3414 52.5779 34.1496C52.4037 33.9285 52.21 33.723 52.0417 33.496C51.9869 33.2103 52.253 33.1222 52.3763 32.9461C52.5192 32.8463 52.5975 32.6389 52.8225 32.6702Z" fill="#FE07B1"/>
<path d="M52.0397 33.4512C52.2511 33.5647 52.4115 33.7291 52.5329 33.9385C52.6737 34.1811 52.8694 34.3514 53.1767 34.3259C52.9262 34.6547 52.6698 34.9756 52.3606 35.2516C52.3039 35.3005 52.2217 35.3122 52.1884 35.2516C51.9517 34.8269 51.4468 34.6371 51.2472 34.1792C51.2159 34.0031 51.3294 33.8974 51.437 33.7898C51.6522 33.7037 51.7716 33.4473 52.0378 33.4512H52.0397Z" fill="#FE0DA9"/>
<path d="M32.8446 34.645C33.553 35.4258 34.3631 36.099 35.1028 36.8465C35.187 36.9307 35.2672 37.0129 35.2672 37.142C35.2242 37.2868 35.1361 37.2633 35.0382 37.2046C34.7702 37.1655 34.5686 37.0246 34.3807 36.8328C33.778 36.2145 33.1596 35.6078 32.553 34.9934C32.5021 34.9425 32.4845 34.8603 32.4512 34.7918C32.5823 34.7429 32.7135 34.6939 32.8465 34.6431L32.8446 34.645Z" fill="#1AC4DA"/>
<path d="M27.9973 36.8873C28.1617 36.7503 28.3378 36.6349 28.5452 36.5762C28.6431 36.586 28.7096 36.6486 28.7762 36.7092C29.3926 37.2807 29.964 37.9029 30.6313 38.4196C30.692 38.4665 30.7389 38.5331 30.7546 38.6133C30.6959 38.8129 30.4904 38.809 30.3554 38.9049C30.2477 38.9499 30.1421 38.9988 30.0227 38.944C29.5804 38.3804 28.9777 37.9851 28.4905 37.4685C28.3143 37.2826 28.1108 37.1241 27.9954 36.8873H27.9973Z" fill="#5AE183"/>
<path d="M51.1278 36.506C50.6914 36.097 50.3216 35.6195 49.8519 35.2438C49.8598 34.9992 50.0985 34.9542 50.2257 34.8113C50.3333 34.7448 50.4351 34.6626 50.5701 34.6509C51.0124 35.0031 51.5153 35.2888 51.8147 35.7957C51.6464 36.0912 51.3744 36.2849 51.1278 36.506Z" fill="#FE189C"/>
<path d="M47.6641 36.649C47.895 37.0932 48.2962 37.3574 48.6797 37.6509C48.8735 37.7996 48.9361 38.1108 49.2453 38.1421C49.0633 38.33 48.8598 38.4885 48.6328 38.6176C48.3882 38.6548 48.2512 38.4787 48.122 38.3319C47.7991 37.964 47.4762 37.5981 47.0868 37.2967C47.0027 37.2321 46.9498 37.1441 46.944 37.0325C47.122 36.7879 47.3217 36.5844 47.6661 36.6509L47.6641 36.649Z" fill="#FE317C"/>
<path d="M30.7369 38.6075C29.9287 38.0165 29.2262 37.3081 28.5472 36.5762C28.7292 36.4804 28.9112 36.3825 29.0932 36.2866C29.6587 36.7974 30.2125 37.3218 30.7193 37.8893C30.917 38.1104 31.2125 38.1672 31.3749 38.4079C31.2066 38.6153 31.0011 38.7053 30.7369 38.6095V38.6075Z" fill="#52DD8E"/>
<path d="M21.5787 42.3472C22.064 42.5566 22.3673 42.9655 22.6883 43.355C22.5748 43.764 22.293 44.0164 21.9133 44.1769C21.5983 43.8383 21.2656 43.5135 20.9897 43.1378C21.156 42.852 21.3576 42.5937 21.5787 42.3472Z" fill="#9FEF48"/>
<path d="M39.1497 40.1614C39.3923 40.1066 39.4432 40.3493 39.5567 40.4569C39.8561 40.7426 40.1673 41.0205 40.4236 41.359C40.635 41.6389 40.9344 41.8522 41.1966 42.0909C41.3786 42.2553 41.5469 42.4295 41.6623 42.6486C41.5136 42.723 41.3786 42.8404 41.1946 42.815C41.1849 42.5821 40.9774 42.5214 40.8444 42.3864C40.4686 42.0048 40.1203 41.5939 39.7505 41.2044C39.5156 40.9579 39.2651 40.725 39.0127 40.4941C38.9344 40.4217 38.8522 40.363 38.8503 40.2456C38.9168 40.1047 39.0147 40.0714 39.1458 40.1595L39.1497 40.1614Z" fill="#FE7922"/>
<path d="M46.9655 37.0421C47.5858 37.4981 48.0046 38.1673 48.6328 38.6174C48.4958 38.8053 48.2688 38.8718 48.0946 39.0107C47.5682 38.4902 47.0438 37.9697 46.5134 37.4511C46.4704 37.41 46.4058 37.3904 46.351 37.3611C46.4626 37.0734 46.6778 36.9854 46.9674 37.0441L46.9655 37.0421Z" fill="#FE3676"/>
<path d="M43.8482 34.4473C43.6622 34.0931 43.4489 33.7624 43.0987 33.5471C42.7836 33.3534 42.676 32.9796 42.359 32.7526C42.0556 32.5354 41.7641 32.2477 41.5018 31.9562C41.6447 31.872 41.7934 31.8094 41.9637 31.8055C42.0556 31.7585 42.1163 31.8251 42.1613 31.8798C42.7836 32.6137 43.6211 33.1303 44.2043 33.9033C44.2787 34.0031 44.4039 34.0853 44.3432 34.2418C44.1984 34.3573 44.0712 34.5158 43.8501 34.4473H43.8482Z" fill="#156CCE"/>
<path d="M36.5274 36.8191C36.4394 36.8054 36.3259 36.8308 36.273 36.7486C35.7251 35.9013 34.8954 35.3397 34.1733 34.6685C34.052 34.555 33.9052 34.4512 33.9326 34.2516C34.0363 34.2223 34.142 34.1949 34.2457 34.1655C34.5666 34.4649 34.9071 34.7448 35.2026 35.0677C35.729 35.643 36.4179 36.0598 36.8249 36.7467C36.7662 36.9345 36.6507 36.8954 36.5274 36.821V36.8191Z" fill="#06BCF4"/>
<path d="M51.8147 35.7956C51.5505 35.6939 51.437 35.4219 51.21 35.2692C50.9732 35.1107 50.7756 34.8935 50.5623 34.7017C50.6816 34.3789 50.9008 34.1793 51.255 34.1519C51.5153 34.4884 51.938 34.6646 52.1454 35.054C52.1943 35.146 52.2334 35.2477 52.3626 35.2497C52.2139 35.4649 52.0319 35.6489 51.8147 35.7956Z" fill="#FE13A2"/>
<path d="M29.874 35.8895C30.0032 35.8269 30.1303 35.7662 30.2595 35.7036C30.6098 35.8112 30.7311 36.1615 30.9659 36.3905C31.4904 36.8993 32.0794 37.3533 32.4728 37.9893C32.4591 38.1106 32.3612 38.1341 32.2692 38.1634C32.1753 38.185 32.0814 38.2124 31.9855 38.1791C31.3495 37.5509 30.6685 36.9736 30.0266 36.3533C29.9053 36.2359 29.7292 36.1087 29.876 35.8915L29.874 35.8895Z" fill="#3FD5A7"/>
<path d="M31.3612 38.3745C31.1068 38.4371 30.9425 38.2395 30.8074 38.1123C30.2341 37.5722 29.6959 36.9949 29.15 36.4293C29.1167 36.3961 29.1128 36.3354 29.0932 36.2884C29.2047 36.1906 29.3378 36.1358 29.4807 36.1045C29.829 36.3237 30.0697 36.6583 30.3691 36.9303C30.7487 37.2747 31.1225 37.6328 31.465 38.0183C31.5413 38.1044 31.6391 38.1768 31.6059 38.3158C31.5393 38.3999 31.4669 38.4547 31.3593 38.3764L31.3612 38.3745Z" fill="#4BDA97"/>
<path d="M20.9916 43.1377C21.383 43.3901 21.6863 43.7228 21.9094 44.1318C21.8292 44.4821 21.61 44.7189 21.2949 44.8754C20.9212 44.666 20.704 44.302 20.4319 43.9929C20.5787 43.6817 20.7881 43.4117 20.9916 43.1377Z" fill="#A5F042"/>
<path d="M32.4571 37.9832C32.0892 37.8149 31.9365 37.4313 31.6469 37.175C31.144 36.7288 30.6371 36.2728 30.2575 35.7034C30.3436 35.6075 30.4689 35.6095 30.5784 35.5703C31.0344 35.7875 31.3377 36.1809 31.686 36.5233C32.0637 36.8951 32.4394 37.2669 32.8191 37.6368C32.8837 37.6994 32.9482 37.7659 32.9404 37.8697C32.8073 38.0282 32.6508 38.0771 32.459 37.9832H32.4571Z" fill="#3AD3AE"/>
<path d="M27.9973 36.8877C28.6666 37.508 29.3378 38.1264 30.0032 38.7507C30.0325 38.7781 30.0208 38.8485 30.0286 38.8994C29.9562 39.0931 29.8212 39.1362 29.6372 39.0599C29.4924 38.827 29.283 38.6743 29.0658 38.5119C28.8408 38.3436 28.6783 38.0951 28.4729 37.8975C28.193 37.6294 27.8975 37.3789 27.6079 37.1225C27.7195 37.0149 27.8506 36.9405 27.9973 36.8877Z" fill="#60E47A"/>
<path d="M32.9326 37.8328C32.3416 37.3573 31.8035 36.823 31.3084 36.2516C31.0872 35.9953 30.7213 35.9033 30.5765 35.5726C30.6978 35.4982 30.8211 35.4278 30.9659 35.4102C31.277 35.5158 31.4669 35.7722 31.6802 35.9933C32.2007 36.5334 32.7584 37.0344 33.3024 37.549C33.3494 37.5941 33.3964 37.6391 33.4022 37.7095C33.279 37.8798 33.1263 37.9424 32.9306 37.8308L32.9326 37.8328Z" fill="#34D0B6"/>
<path d="M44.3178 34.2201C43.9206 33.6663 43.447 33.2006 42.8991 32.7876C42.5429 32.5196 42.2729 32.138 41.9637 31.8072C42.0889 31.7329 42.2142 31.6585 42.3668 31.6644C42.8815 32.2984 43.5331 32.7916 44.1026 33.3688C44.31 33.5782 44.5938 33.7309 44.629 34.0694C44.5703 34.2142 44.4803 34.2905 44.3159 34.2201H44.3178Z" fill="#156CCE"/>
<path d="M31.5902 38.2927C31.0657 37.7135 30.51 37.1675 29.9229 36.6548C29.737 36.4924 29.6529 36.2654 29.4807 36.1029C29.5922 35.9953 29.7331 35.9444 29.874 35.8916C29.9307 36.2967 30.2869 36.463 30.5374 36.7057C31.0266 37.1773 31.5941 37.5667 31.9816 38.1401C31.9189 38.3632 31.7722 38.371 31.5902 38.2947V38.2927Z" fill="#46D89E"/>
<path d="M54.889 31.9795C54.5544 31.8092 54.4135 31.4159 54.0632 31.2613C54.0397 31.23 54.028 31.1967 54.026 31.1576C54.2099 30.7955 54.4311 30.4609 54.7735 30.2241C55.0827 30.3983 55.2041 30.7584 55.4917 30.956C55.2667 31.2828 55.159 31.6801 54.887 31.9795H54.889Z" fill="#F300B0"/>
<path d="M55.4936 30.9559C55.0612 30.9207 55.0181 30.4902 54.7813 30.2573C54.7031 30.1086 54.8185 30.0088 54.8733 29.8933C55.0631 29.6937 55.0944 29.3571 55.4095 29.2632C55.7383 29.3767 55.9437 29.6037 56.0298 29.9403C55.8987 30.3043 55.7128 30.6389 55.4936 30.9559Z" fill="#E500A4"/>
<path d="M33.4101 37.68C33.1753 37.6604 33.0657 37.4628 32.9228 37.3239C32.2653 36.6918 31.6195 36.048 30.9679 35.4081C31.0951 35.3493 31.2243 35.2926 31.3514 35.2339C31.8935 35.8112 32.4121 36.41 33.0129 36.9305C33.2516 37.1379 33.4708 37.3689 33.6997 37.588C33.6919 37.6448 33.6586 37.6839 33.6097 37.7113C33.5373 37.7348 33.4708 37.7368 33.4121 37.68H33.4101Z" fill="#2FCEBD"/>
<path d="M20.432 43.9951C20.8292 44.1673 20.9975 44.5665 21.2832 44.8483C21.1815 45.2436 20.9486 45.5371 20.5924 45.7328C20.4007 45.4276 20.0934 45.224 19.886 44.9325C20.0288 44.5978 20.2167 44.2867 20.432 43.9951Z" fill="#ACF13D"/>
<path d="M19.886 44.9321C20.1971 45.1278 20.5337 45.302 20.5865 45.7247C20.5533 46.0906 20.3576 46.3509 20.0523 46.5387C19.7059 46.4761 19.5122 46.2335 19.3576 45.9478C19.5005 45.5916 19.6766 45.2531 19.886 44.9321Z" fill="#B3F238"/>
<path d="M18.3029 48.5956C18.4633 48.0927 18.6062 47.5839 18.8606 47.1162C19.2383 47.0418 19.3361 47.3373 19.475 47.58C19.3126 48.122 19.0895 48.6328 18.7471 49.0887C18.5357 48.9811 18.3987 48.8069 18.3029 48.5956Z" fill="#C3F52C"/>
<path d="M19.4104 47.5857C19.2558 47.3959 19.1286 47.1728 18.8605 47.116C18.9701 46.7012 19.1619 46.3235 19.3576 45.9478C19.6276 46.0847 19.7607 46.392 20.0542 46.4996C19.9681 46.9379 19.8018 47.3293 19.4104 47.5857Z" fill="#BAF433"/>
<path d="M57.429 23.6121C57.4603 23.3948 57.4818 23.1757 57.5856 22.9761C57.7989 23.2031 58.0219 23.4262 57.9104 23.7862C57.8752 24.3948 57.7793 24.9917 57.5934 25.5729C57.431 25.3341 57.3683 25.0347 57.1472 24.8312C57.1472 24.4027 57.2157 23.9897 57.429 23.6121Z" fill="#A7016B"/>
<path d="M57.2059 24.8623C57.5895 24.9601 57.5562 25.2869 57.5953 25.5727C57.5445 25.9777 57.4447 26.3691 57.2842 26.7448C56.9848 26.7057 56.8478 26.4944 56.748 26.2419C56.746 25.8564 56.9085 25.5081 57.0063 25.1461C57.0376 25.0267 57.065 24.9054 57.2059 24.8623Z" fill="#B60079"/>
<path d="M17.0563 56.302C17.0367 54.9537 17.2265 53.623 17.3968 52.2904C17.4007 52.2551 17.4379 52.2258 17.4594 52.1925C17.6355 52.0888 17.7275 52.1651 17.7745 52.3393C17.7216 53.3079 17.4692 54.2512 17.3753 55.214C17.3263 55.711 17.3381 56.2198 17.1796 56.7032C17.1404 56.7403 17.0993 56.7442 17.0543 56.7169C17.0211 56.5779 17.0211 56.439 17.0582 56.3L17.0563 56.302Z" fill="#E5F815"/>
<path d="M56.7911 26.2656C56.9555 26.4261 57.1199 26.5866 57.2842 26.747C57.1668 27.1404 57.1003 27.5494 56.9026 27.9153C56.4995 27.9212 56.3841 27.8253 56.2706 27.3908C56.2882 27.1501 56.4134 26.9447 56.4878 26.7216C56.5856 26.567 56.5719 26.338 56.7911 26.2637V26.2656Z" fill="#C40186"/>
<path d="M56.0299 29.9404C55.799 29.7487 55.6835 29.4395 55.388 29.3103C55.3665 29.277 55.3528 29.2418 55.3528 29.2027C55.4839 28.9091 55.5622 28.5784 55.8929 28.4199C56.3547 28.5667 56.4721 28.7135 56.4252 29.0911C56.3351 29.3925 56.2119 29.6802 56.0299 29.9404Z" fill="#D90098"/>
<path d="M18.3029 48.5957C18.4809 48.719 18.6668 48.8325 18.7079 49.0712C18.7334 49.6348 18.4907 50.1103 18.2128 50.5741C17.978 50.5878 17.9271 50.4019 17.8547 50.2415C17.9369 49.674 18.1209 49.1358 18.3029 48.5957Z" fill="#CEF624"/>
<path d="M56.4251 29.0912C56.429 28.7116 56.1003 28.6176 55.8674 28.4415C55.7559 28.1871 55.9985 28.0169 56.024 27.7957C56.1179 27.6451 56.0729 27.3868 56.3449 27.3691C56.3782 27.7077 56.6286 27.8231 56.9026 27.9151C56.7421 28.3065 56.6717 28.7351 56.4251 29.0912Z" fill="#D00090"/>
<path d="M17.8547 50.2412C18.0406 50.2686 18.023 50.4917 18.1639 50.5621C18.2578 50.66 18.2324 50.7754 18.2089 50.887C18.1169 51.3253 17.9702 51.748 17.8665 52.1844C17.8469 52.2686 17.8117 52.3605 17.6942 52.3586C17.6845 52.204 17.5768 52.1903 17.4575 52.1942C17.5201 51.5289 17.6453 50.8772 17.8547 50.2432V50.2412Z" fill="#D8F71F"/>
<path d="M57.7402 21.2559C57.746 20.7412 57.7519 20.2266 57.7597 19.7119C57.9457 19.7315 57.9672 19.9037 58.0455 20.0211C58.0298 20.6982 58.2196 21.3733 58.0591 22.0524C57.7832 22.0758 57.746 21.8684 57.7167 21.6766C57.6952 21.5397 57.6795 21.3929 57.7382 21.2559H57.7402Z" fill="#8D0154"/>
<path d="M57.7402 21.2559C57.7441 21.5631 57.7284 21.8782 58.0611 22.0523C58.0709 22.6355 58.0474 23.2147 57.9104 23.7861C57.9163 23.6022 57.8811 23.4358 57.7226 23.3145C57.611 23.2304 57.5856 23.109 57.5856 22.976C57.6384 22.4026 57.6893 21.8292 57.7421 21.2559H57.7402Z" fill="#99015E"/>
<path d="M58.0474 20.021C57.8928 19.9721 57.8302 19.839 57.7617 19.7118C57.7539 18.8762 57.6697 18.0465 57.5934 17.2148C57.8556 17.8547 57.8752 18.5436 57.9809 19.2128C58.0239 19.479 58.0278 19.751 58.0474 20.021Z" fill="#7A0244"/>
<path d="M17.0563 56.3018C17.0641 56.4446 17.0739 56.5875 17.0817 56.7303C17.2422 56.9671 17.0954 57.2137 17.1033 57.4563C17.0876 57.5092 17.0543 57.5248 17.0035 57.5033C16.9878 57.1021 16.9624 56.699 17.0563 56.3018Z" fill="#D0D40D"/>
<path d="M17.0035 57.5034C17.0211 57.5034 17.0387 57.5015 17.0563 57.4995C17.1326 57.5191 17.0896 57.6032 17.1326 57.6424C17.1542 57.6756 17.1757 57.7069 17.1972 57.7402C17.1522 57.8811 17.1483 58.0396 17.0035 58.1786V57.5034Z" fill="#D3DB43"/>
<path d="M57.2059 24.8622C57.1688 24.962 57.1296 25.0618 57.0925 25.1616C56.7911 25.1851 56.6091 25.0266 56.4193 24.8035C56.1375 24.4728 55.7755 24.2086 55.6443 23.7683C55.8283 23.3515 56.0122 22.9346 56.1942 22.5178C56.4447 22.4845 56.5445 22.7213 56.5856 22.8524C56.6874 23.1714 56.8361 23.3319 57.1805 23.2771C57.4682 23.2301 57.2118 23.598 57.429 23.6117C57.4212 24.0403 57.247 24.4395 57.204 24.8622H57.2059Z" fill="#A75AFD"/>
<path d="M17.6962 52.3567C17.8528 51.7578 18.0093 51.159 18.1639 50.5602C18.3811 50.0769 18.5533 49.5759 18.7079 49.0691C18.9428 48.574 19.1756 48.0789 19.4105 47.5838C19.6257 47.2218 19.839 46.8597 20.0543 46.4977C20.2323 46.2394 20.4085 45.983 20.5865 45.7247C20.8194 45.4332 21.0503 45.1396 21.2832 44.848C21.4926 44.6093 21.7 44.3725 21.9094 44.1338C22.2069 43.9127 22.4573 43.6426 22.6902 43.3569C23.0542 43.1045 23.379 42.8031 23.7039 42.5037C23.9602 42.353 24.1911 42.1671 24.4084 41.9636C24.4827 41.9284 24.5551 41.8931 24.6295 41.8579C24.9896 42.0771 25.4083 42.2512 25.3301 42.8011C25.3242 42.8461 25.3868 42.8833 25.4259 42.9186C25.4533 42.942 25.4768 42.9694 25.5003 42.9968C25.5218 43.0281 25.5473 43.0771 25.5786 43.0771C26.105 43.0712 26.2635 43.4782 26.3966 43.8598C26.4709 44.0751 26.5629 44.2101 26.7664 44.3001C26.8897 44.353 27.0228 44.4351 26.9856 44.6152C26.6471 44.8559 26.3105 45.0966 25.9719 45.3392C25.5531 45.5799 25.1676 45.8637 24.7978 46.1729C24.242 46.5545 23.7215 46.9772 23.2421 47.4488C22.4378 48.1258 21.7137 48.8812 21.0523 49.6992C19.3028 51.7755 18.0387 54.11 17.3146 56.7323C17.2794 56.8575 17.2461 56.9828 17.2109 57.108C17.0074 57.0062 17.1326 56.8438 17.1365 56.7049C17.1952 55.4975 17.3577 54.3018 17.5749 53.114C17.6199 52.8635 17.6571 52.6111 17.6982 52.3606L17.6962 52.3567Z" fill="#FEFEFE"/>
<path d="M17.1346 56.7012C17.1776 56.8323 17.0974 56.9869 17.2089 57.1043C17.1835 57.2824 17.1561 57.4624 17.1306 57.6405C17.1052 57.5935 17.0798 57.5446 17.0543 57.4976C17.0621 57.2413 17.0719 56.9869 17.0798 56.7305C17.0974 56.7207 17.1169 56.711 17.1346 56.7012Z" fill="#FCFED9"/>
<path d="M29.6391 39.0595C29.7702 39.0067 29.8994 38.9519 30.0305 38.8991C30.1323 38.8736 30.234 38.8462 30.3338 38.8208C30.553 38.9637 30.7291 39.1515 30.8622 39.3726C30.9424 39.5077 31.0266 39.6368 31.1381 39.7445C31.6763 40.265 32.1322 40.8599 32.6273 41.4176C32.7623 41.5702 32.9345 41.7209 32.7604 41.9538C32.7075 41.9851 32.6567 42.0184 32.6038 42.0497C32.3083 42.128 32.0128 42.2082 31.7448 42.3667C31.4551 42.4822 31.1655 42.5996 30.8759 42.715C30.645 42.8031 30.4141 42.8911 30.1832 42.9792C29.87 42.4959 29.416 42.1143 29.1558 41.5937C29.1264 41.537 29.0971 41.4607 29.0442 41.4391C28.3926 41.1534 28.2713 40.3667 27.6901 40.0145C27.7507 39.9675 27.8114 39.9186 27.8721 39.8717C28.2595 39.6877 28.647 39.5038 29.0345 39.3198C29.2497 39.2689 29.4474 39.173 29.6372 39.0615L29.6391 39.0595Z" fill="#FEF2FE"/>
<path d="M32.7624 41.9538C32.7761 41.7913 32.7369 41.6563 32.6117 41.5369C32.0853 41.0321 31.6802 40.4176 31.1558 39.9068C30.8329 39.5937 30.6039 39.1867 30.3339 38.8208C30.4689 38.7503 30.602 38.6799 30.737 38.6075C30.9562 38.5585 31.1655 38.4842 31.3612 38.3726C31.4493 38.3785 31.5256 38.3492 31.5921 38.2924C31.735 38.2728 31.8739 38.2435 31.9835 38.1378C32.0618 38.1182 32.1401 38.0987 32.2184 38.0791C32.3749 38.175 32.5256 38.2924 32.6058 38.4529C32.8563 38.9499 33.3083 39.2728 33.6508 39.6935C33.9111 40.0145 34.1968 40.3139 34.457 40.6348C34.6136 40.8266 34.7936 41.0301 34.7173 41.3197C34.639 41.3569 34.5608 41.3941 34.4844 41.4313C34.1322 41.4919 33.8015 41.6191 33.4688 41.7424C33.234 41.8129 32.9992 41.8833 32.7663 41.9538H32.7624Z" fill="#FEEAFE"/>
<path d="M34.7134 41.3198C34.5059 40.6799 33.9952 40.2611 33.5764 39.7797C33.097 39.2318 32.5804 38.7171 32.2164 38.0792C32.2966 38.0479 32.3768 38.0146 32.4571 37.9833C32.6156 37.9324 32.7741 37.8815 32.9346 37.8307C33.1048 37.8189 33.2653 37.77 33.412 37.68C33.4805 37.6761 33.551 37.6722 33.6195 37.6682C33.7878 37.5841 33.8934 37.6917 33.9756 37.8052C34.3318 38.3003 34.8171 38.6819 35.1948 39.1418C35.5764 39.6075 35.9932 40.0498 36.3435 40.5429C36.4139 40.6427 36.455 40.7504 36.3552 40.8599C36.3024 40.8893 36.2495 40.9167 36.1967 40.946C35.9638 41.0047 35.729 41.0635 35.4961 41.1222C35.2359 41.1887 34.9756 41.2533 34.7153 41.3198H34.7134Z" fill="#FEE0FE"/>
<path d="M27.694 40.0146C28.0776 40.1497 28.3457 40.3884 28.4885 40.7857C28.5531 40.9696 28.6412 41.177 28.9053 41.1966C28.9719 41.2005 29.0658 41.2573 29.0952 41.316C29.3398 41.8209 29.7566 42.1985 30.0619 42.6584C30.1245 42.7523 30.148 42.8737 30.1891 42.9813C30.1636 43.0087 30.1362 43.0381 30.1108 43.0655C29.7801 43.179 29.467 43.3277 29.1636 43.4999C28.829 43.6721 28.4944 43.8463 28.1578 44.0185C27.829 44.1672 27.5179 44.3511 27.2204 44.5566C27.1383 44.5586 27.0776 44.6564 26.9837 44.6153C26.9347 44.5566 26.8917 44.4568 26.8349 44.447C26.3105 44.359 26.2929 43.8795 26.1363 43.5273C26.0444 43.3198 25.9446 43.2063 25.7215 43.2161C25.5532 43.224 25.4044 43.2103 25.4514 42.9559C25.469 42.9383 25.4769 42.9304 25.4514 42.9559C25.4612 42.948 25.471 42.9402 25.4514 42.9559C25.3125 42.9793 25.1598 42.8893 25.1833 42.8365C25.4279 42.269 24.8096 42.2122 24.6452 41.8933C24.6393 41.8815 24.6354 41.8698 24.6295 41.858C24.9289 41.6369 25.2283 41.4177 25.5297 41.1966C25.9211 40.9637 26.3124 40.7289 26.7019 40.496C27.0326 40.3356 27.3633 40.1751 27.694 40.0166V40.0146Z" fill="#FEFAFE"/>
<path d="M55.6444 23.7706C55.7031 23.751 55.7931 23.7139 55.8029 23.8C55.8655 24.3342 56.4271 24.4888 56.6326 24.9056C56.7363 25.117 56.975 25.0191 57.0925 25.1639C56.9927 25.5318 56.8909 25.8978 56.7911 26.2657C56.7167 26.4222 56.6443 26.5807 56.57 26.7373C56.5269 26.7784 56.4565 26.7881 56.4369 26.7451C56.2275 26.2754 55.662 26.0856 55.523 25.5455C55.4565 25.2911 55.1238 25.1933 55.0084 24.9389C55.0573 24.8352 55.1062 24.7314 55.1551 24.6277C55.3195 24.342 55.4839 24.0544 55.6463 23.7687L55.6444 23.7706Z" fill="#B458FD"/>
<path d="M44.3178 34.2202L44.6309 34.0696C44.9577 33.9424 45.2806 33.8093 45.5683 33.6038C45.6974 33.551 45.8266 33.4962 45.9558 33.4434C46.0653 33.4668 46.1299 33.5529 46.2043 33.6254C46.4704 33.8837 46.4665 33.9404 46.1534 34.2085C46.3745 34.0735 46.5096 34.0931 46.6916 34.2927C47.0223 34.6527 47.3882 34.9776 47.5585 35.455C47.5761 35.5059 47.625 35.547 47.6759 35.547C48.0692 35.5549 48.216 35.8993 48.4586 36.1126C48.4058 36.1634 48.353 36.2163 48.2982 36.2672C48.0731 36.3748 47.8539 36.4902 47.6622 36.6527C47.398 36.729 47.1847 36.8953 46.9636 37.046C46.7366 37.1067 46.535 37.2202 46.3471 37.3611C46.1417 37.4178 45.9538 37.5059 45.7933 37.6468C45.7151 37.6722 45.6368 37.6977 45.5585 37.7231C45.4528 37.6957 45.3746 37.6331 45.31 37.547C44.7523 36.7838 44.0693 36.1302 43.4431 35.4277C43.2846 35.2496 43.0302 35.0852 43.1378 34.7701C43.1378 34.7506 43.1417 34.731 43.1457 34.7114C43.404 34.6899 43.6192 34.5568 43.8462 34.4512C44.0028 34.3748 44.1593 34.3005 44.3159 34.2242L44.3178 34.2202Z" fill="#FC4DFE"/>
<path d="M48.4586 36.1087C48.2884 36.0226 48.0301 36.0441 48.034 35.7525C48.034 35.7427 48.0183 35.7212 48.0125 35.7232C47.5761 35.7643 47.4313 35.4609 47.2806 35.1341C47.1123 34.7741 46.7424 34.5745 46.5252 34.2457C46.4548 34.1381 46.308 34.1576 46.216 34.2672C46.1456 34.3533 46.0693 34.4531 45.9832 34.3103C45.9147 34.1948 45.9832 34.1576 46.1162 34.1224C46.3354 34.0637 46.4156 33.9072 46.1906 33.7389C46.081 33.6586 46.0027 33.5647 45.9518 33.4414C46.0575 33.3671 46.1632 33.2927 46.2689 33.2183C46.58 33.1401 46.7894 32.8994 47.0497 32.7408C47.2571 32.735 47.3745 32.5354 47.5663 32.5021C48.0966 32.3632 48.394 32.7271 48.6993 33.0461C48.9302 33.2868 49.2375 33.4669 49.3568 33.8034C49.5232 34.2751 49.9811 34.4942 50.2629 34.866C50.1239 34.9932 49.987 35.1185 49.848 35.2457C49.5604 35.3885 49.306 35.5803 49.0653 35.7916C48.8617 35.8973 48.6602 36.0049 48.4567 36.1106L48.4586 36.1087Z" fill="#F84EFE"/>
<path d="M56.0983 27.8288C56.0905 28.0598 55.9007 28.2202 55.8674 28.4414C55.7089 28.7055 55.5484 28.9697 55.3899 29.2339C55.3606 29.2633 55.3234 29.2809 55.2862 29.2691C55.026 29.2006 55.1199 28.8738 54.9281 28.7642C54.6952 28.6331 54.6913 28.641 54.7226 28.2476C54.5857 28.3396 54.3763 28.3357 54.3508 28.2359C54.2765 27.9228 53.9262 27.8562 53.8342 27.5999C53.7579 27.3866 53.6385 27.2966 53.433 27.277C53.5505 27.0989 53.6659 26.9208 53.7833 26.7428C53.9653 26.5079 54.1454 26.2731 54.3273 26.0383C54.6639 26.007 54.9066 26.1557 55.0475 26.4512C55.1512 26.6704 55.3332 26.8113 55.48 26.9874C55.7011 27.2535 55.9848 27.4844 56.1023 27.8288H56.0983Z" fill="#C655FD"/>
<path d="M56.0983 27.8288C55.9437 27.7799 55.9672 27.4257 55.6854 27.5881C55.658 27.6038 55.6032 27.5666 55.6208 27.5216C55.7559 27.1615 55.4134 27.1008 55.253 26.9267C55.1923 26.8601 55.0866 26.8073 55.071 26.7329C54.9868 26.3161 54.6639 26.1713 54.3254 26.0383C54.5524 25.6723 54.7794 25.3044 55.0083 24.9385C55.2862 25.1479 55.6404 25.279 55.6776 25.7114C55.6874 25.8191 55.8009 25.9561 55.9046 26.0089C56.2197 26.1752 56.3429 26.5001 56.5719 26.7369C56.4975 26.9482 56.4212 27.1576 56.3469 27.3689C56.2001 27.4883 56.2177 27.6957 56.1022 27.8308L56.0983 27.8288Z" fill="#BC57FD"/>
<path d="M50.2648 34.8639C49.9478 34.8307 49.8382 34.5254 49.6269 34.3551C49.5134 34.2632 49.4097 34.2005 49.257 34.1868C49.5173 33.9501 49.2473 33.7231 49.1729 33.6604C48.8559 33.3923 48.6817 32.9481 48.2179 32.8581C48.2062 32.8562 48.1847 32.8483 48.1847 32.8425C48.1866 32.3513 47.7013 32.7407 47.5682 32.5C47.6309 32.4472 47.6915 32.3943 47.7541 32.3395C48.0594 32.1673 48.351 31.9736 48.6171 31.7427C48.8715 31.5724 49.1279 31.4041 49.3823 31.2339C49.5427 31.4805 49.9498 31.5431 49.9087 31.9423C49.9048 31.9814 49.9517 32.0108 49.9909 31.9912C50.3138 31.8405 50.3138 32.0225 50.2707 32.2573C50.2531 32.3552 50.2961 32.4335 50.3705 32.4961C50.4096 32.5294 50.4488 32.5685 50.4958 32.5881C50.7541 32.6898 50.4801 33.1223 50.7423 33.1047C51.0535 33.0851 51.0789 33.2514 51.1533 33.4393C51.1983 33.5528 51.302 33.5645 51.4096 33.5822C51.5838 33.6076 51.5779 33.7113 51.5016 33.8346C51.4194 33.9383 51.3372 34.042 51.255 34.1457C50.9967 34.2964 50.7736 34.4882 50.5623 34.6956C50.4644 34.7504 50.3646 34.8033 50.2668 34.8581L50.2648 34.8639Z" fill="#F04FFE"/>
<path d="M43.8482 38.4727C43.7131 38.504 43.6153 38.6351 43.4626 38.6155C43.0184 38.1674 42.5801 37.7095 42.175 37.2261C41.9069 36.9071 41.6153 36.6116 41.3335 36.3064C41.1535 36.1126 40.9128 35.9404 40.9343 35.6254C41.0478 35.5725 41.1613 35.5177 41.2729 35.4649C41.3257 35.4551 41.3766 35.4434 41.4294 35.4336C42.3257 36.3083 43.1124 37.2789 43.9166 38.2339C43.9695 38.2965 43.993 38.3689 43.9284 38.4413C43.9029 38.4531 43.8755 38.4629 43.8501 38.4746L43.8482 38.4727Z" fill="#FD7FFE"/>
<path d="M43.9264 38.4393C43.494 37.8777 43.0713 37.3082 42.5625 36.8111C42.1848 36.4432 41.9402 35.9521 41.4921 35.6468C41.4216 35.5979 41.4314 35.5079 41.4275 35.4315C41.586 35.365 41.7426 35.3004 41.9011 35.2339L41.8913 35.2672C42.7327 36.183 43.5351 37.134 44.355 38.0694C44.3902 38.1105 44.4118 38.1536 44.3941 38.2103C44.2572 38.3238 44.1026 38.4041 43.9264 38.4393Z" fill="#FD75FE"/>
<path d="M42.2024 35.1537C42.31 35.1028 42.4157 35.05 42.5233 34.9991C42.5762 34.9874 42.631 34.9737 42.6838 34.9619C43.3922 35.7388 44.1006 36.5157 44.7405 37.3532C44.8736 37.5274 45.2141 37.5822 45.1025 37.9149C44.9949 37.9814 44.8892 38.0499 44.7816 38.1164C44.7307 38.1262 44.6818 38.136 44.6309 38.1477C43.9871 37.2397 43.1554 36.4961 42.4529 35.639C42.3355 35.4942 42.1437 35.3905 42.2004 35.1556L42.2024 35.1537Z" fill="#FD64FE"/>
<path d="M42.2024 35.1538C42.5918 35.6626 43.0282 36.1283 43.4646 36.598C43.8716 37.0383 44.2532 37.506 44.6446 37.962C44.6955 38.0226 44.6505 38.0852 44.6329 38.1459C44.5722 38.2359 44.4841 38.2242 44.3961 38.2105C44.0067 37.9287 43.7405 37.5275 43.4411 37.1655C43.0047 36.6391 42.5292 36.1499 42.0811 35.6352C41.9871 35.5276 41.8795 35.4297 41.8932 35.2673C41.9969 35.2301 42.1006 35.191 42.2024 35.1538Z" fill="#FD6EFE"/>
<path d="M36.3533 40.8619C36.3298 40.5195 36.0284 40.357 35.8582 40.1105C35.7799 39.997 35.6058 39.9422 35.551 39.8248C35.1733 39.0185 34.3083 38.6252 33.8993 37.8483C33.8445 37.7426 33.7487 37.6702 33.6195 37.6683L33.6997 37.59C33.868 37.5782 34.0246 37.5332 34.1713 37.451C34.4531 37.3884 34.7349 37.3258 35.0187 37.2632C35.2516 37.3904 35.3925 37.6154 35.5588 37.8072C36.2104 38.5704 36.8327 39.359 37.5333 40.0811C37.6507 40.2024 37.8758 40.3433 37.6077 40.5429C37.4472 40.5977 37.2848 40.6545 37.1243 40.7093C36.868 40.7602 36.6116 40.811 36.3572 40.8619H36.3533Z" fill="#FED6FE"/>
<path d="M45.1026 37.9128C44.9891 37.5997 44.6857 37.4451 44.4901 37.1985C43.9695 36.541 43.4001 35.9207 42.8345 35.2984C42.7386 35.1927 42.7386 35.0694 42.6819 34.9598C42.8345 34.8953 42.9872 34.8307 43.1398 34.7661C43.2494 35.1731 43.5664 35.4412 43.8404 35.7191C44.4607 36.3473 45.0439 37.0028 45.5585 37.721C45.4059 37.7856 45.2532 37.8482 45.1006 37.9128H45.1026Z" fill="#FD59FE"/>
<path d="M52.8225 32.6705C52.6972 32.7761 52.572 32.8838 52.4468 32.9894C52.0945 32.9777 52.0476 32.6157 51.9752 32.4337C51.8362 32.0854 51.5075 31.966 51.3255 31.692C51.0574 31.285 50.8323 30.8388 50.4057 30.557C50.3725 30.5355 50.4155 30.4592 50.4057 30.4083C50.619 30.2028 50.8323 29.9954 51.0456 29.7899C51.0946 29.7625 51.1435 29.7351 51.1904 29.7077C51.2746 29.6314 51.3842 29.6412 51.484 29.6216C51.6601 29.5864 51.7775 29.6373 51.7384 29.8408C51.6992 30.0521 51.7853 30.2009 51.9536 30.3007C52.1102 30.3946 52.1748 30.5512 52.2687 30.6881C52.3607 30.8232 52.4252 30.9934 52.6464 30.9582C52.707 30.9484 52.8068 30.9758 52.8147 31.0325C52.8655 31.4435 53.3939 31.5922 53.3587 32.0443C53.1786 32.2537 52.9986 32.463 52.8186 32.6705H52.8225Z" fill="#E351FE"/>
<path d="M53.3626 32.042C53.2471 31.6937 52.8146 31.5489 52.7872 31.1438C52.7814 31.0596 52.7383 31.0166 52.6679 31.0342C52.2393 31.1379 52.1806 30.8268 52.0984 30.5371C52.0749 30.453 51.9888 30.4412 51.9262 30.4002C51.6699 30.2397 51.4742 30.0479 51.7344 29.68C51.5231 29.7015 51.3568 29.7896 51.1963 29.7055C51.4174 29.3826 51.7951 29.2045 51.981 28.8483C52.0045 28.8444 52.028 28.8444 52.0495 28.8444C52.1278 28.7759 52.206 28.8014 52.2432 28.8796C52.4135 29.2495 52.709 29.5509 52.9732 29.817C53.345 30.1947 53.5935 30.6604 53.977 31.0166C54.026 31.0635 54.0514 31.1222 54.071 31.1849C54.071 31.2103 54.071 31.2357 54.0671 31.2631C53.8322 31.5234 53.5994 31.7837 53.3645 32.0439L53.3626 32.042Z" fill="#DE51FE"/>
<path d="M50.4096 30.4082C50.4507 30.6352 50.6601 30.6783 50.8147 30.7781C50.9811 30.8857 51.0985 31.0031 51.1474 31.2203C51.1826 31.3788 51.1983 31.6587 51.5094 31.596C51.5153 31.9365 51.9556 31.9346 52.0163 32.2555C52.0691 32.5393 52.2472 32.78 52.4487 32.9913C52.3137 33.1459 52.1787 33.2985 52.0417 33.4512C51.8499 33.5647 51.7305 33.7799 51.5016 33.8406C51.4957 33.7428 51.5231 33.6019 51.3431 33.6899C51.2178 33.7506 51.1513 33.7017 51.1004 33.5901C51.0085 33.3846 50.9713 33.1068 50.6249 33.2359C50.5036 33.2809 50.5055 33.2066 50.5192 33.1146C50.5584 32.868 50.5192 32.6743 50.2531 32.5451C50.0046 32.4258 50.1748 32.2144 50.2413 32.052C50.1083 31.96 50.0946 32.0813 50.0476 32.1224C49.985 32.1772 49.9106 32.2281 49.8441 32.1655C49.7952 32.1185 49.7404 32.0031 49.7639 31.9639C49.9087 31.7232 49.7639 31.6352 49.574 31.5765C49.394 31.5217 49.394 31.3769 49.3784 31.236C49.3784 31.2184 49.3784 31.2007 49.3784 31.1851C49.6817 30.9737 50.0046 30.7878 50.2335 30.4845C50.2707 30.4121 50.3411 30.4141 50.4077 30.4082H50.4096Z" fill="#EB50FE"/>
<path d="M40.4921 39.6974C40.3864 39.7502 40.2827 39.8011 40.177 39.854C40.0225 39.8833 39.8679 39.9107 39.7133 39.9401C39.2143 39.3178 38.592 38.8051 38.1575 38.1162C37.9677 37.8149 37.6331 37.5937 37.3748 37.3237C37.2143 37.1573 37.0323 37.0028 37.0578 36.7366C37.1869 36.6838 37.318 36.629 37.4472 36.5762C37.5431 36.5722 37.637 36.5703 37.7329 36.5664C37.9481 36.4803 38.0479 36.6505 38.1477 36.7738C38.8542 37.6544 39.6741 38.4352 40.3786 39.3178C40.4706 39.4332 40.5626 39.5389 40.4941 39.6974H40.4921Z" fill="#FEB8FE"/>
<path d="M40.4921 39.6976C40.1829 39.1692 39.7641 38.723 39.3492 38.2847C38.8561 37.7641 38.4002 37.2123 37.9285 36.6761C37.8718 36.6115 37.8131 36.5763 37.7328 36.5665C37.9129 36.4706 38.1066 36.4295 38.3062 36.4061C38.4275 36.4628 38.5 36.2984 38.6174 36.3356C39.3649 37.2534 40.1888 38.1046 40.9519 39.0087C41.0635 39.1418 41.22 39.2573 41.1966 39.4647C41.0928 39.5156 40.9872 39.5684 40.8835 39.6193C40.7543 39.6447 40.6232 39.6702 40.494 39.6956L40.4921 39.6976Z" fill="#FEB0FE"/>
<path d="M41.1946 39.4648C40.5939 38.6723 39.8542 37.9972 39.2593 37.1948C39.1242 37.0129 38.8992 36.9111 38.7583 36.7232C38.6683 36.6039 38.6096 36.4845 38.6155 36.3358C38.7466 36.2849 38.8757 36.232 39.0068 36.1812L39.1595 36.1851C39.4902 36.1322 39.5822 36.4199 39.7309 36.6058C40.3336 37.3592 40.9109 38.1322 41.6173 38.7975C41.7426 38.9169 41.9285 39.0011 41.8952 39.2241C41.8091 39.2731 41.721 39.322 41.6349 39.3709C41.4882 39.4022 41.3414 39.4335 41.1946 39.4648Z" fill="#FEA6FE"/>
<path d="M40.179 35.8032C40.2318 35.8032 40.2847 35.8071 40.3375 35.8091C40.6937 36.0674 41.0146 36.3727 41.2827 36.7132C41.7758 37.3413 42.3648 37.8893 42.8149 38.5527C42.8717 38.6348 42.9519 38.7131 42.9108 38.8305C42.7543 38.9108 42.5977 38.993 42.4431 39.0732C42.4177 39.0693 42.3903 39.0634 42.3648 39.0595C41.9852 38.8442 41.7191 38.4998 41.4568 38.175C40.8952 37.4822 40.269 36.8462 39.725 36.1418C39.6917 36.0987 39.6702 36.0557 39.7015 36.0028C39.862 35.9363 40.0224 35.8698 40.1829 35.8032H40.179Z" fill="#FD94FE"/>
<path d="M39.6995 36.0049C40.1437 36.365 40.4334 36.864 40.8228 37.2749C41.3629 37.8444 41.8521 38.4627 42.3609 39.0616C42.2063 39.1163 42.0498 39.1711 41.8952 39.2259C41.4099 38.7308 40.9069 38.2573 40.4823 37.7054C40.1085 37.2182 39.7074 36.7524 39.3218 36.2749C39.2768 36.2201 39.226 36.1927 39.1594 36.1849C39.2905 36.1301 39.4216 36.0734 39.5528 36.0186C39.6017 36.0147 39.6486 36.0088 39.6976 36.0049H39.6995Z" fill="#FD9DFE"/>
<path d="M37.0577 36.7368C37.363 37.1771 37.678 37.6076 38.1536 37.8836C38.1751 37.8953 38.1927 37.9188 38.2025 37.9423C38.496 38.6076 39.0714 39.044 39.5293 39.5763C39.6173 39.678 39.7465 39.77 39.7152 39.9383C39.7073 39.9579 39.6995 39.9794 39.6897 39.999C39.498 40.0146 39.316 40.0596 39.1496 40.1575C39.042 40.1555 38.9402 40.1731 38.8541 40.2436C38.8287 40.2377 38.8013 40.2318 38.7759 40.226C38.0733 39.4413 37.4432 38.592 36.6702 37.866C36.4217 37.6311 36.2241 37.318 36.1223 36.9677C36.2573 36.9169 36.3943 36.866 36.5293 36.8151C36.6331 36.8112 36.7407 36.821 36.8268 36.7407C36.9051 36.7388 36.9814 36.7349 37.0597 36.7329L37.0577 36.7368Z" fill="#FEC2FE"/>
<path d="M42.9108 38.8309C42.3062 37.9953 41.588 37.2536 40.9305 36.4611C40.7446 36.236 40.451 36.1049 40.3395 35.8094C40.4158 35.7742 40.4941 35.739 40.5704 35.7038C40.6917 35.6764 40.813 35.649 40.9344 35.6235C41.1027 35.9895 41.4099 36.2419 41.676 36.5237C42.0635 36.9327 42.4177 37.371 42.7934 37.7918C43.0302 38.056 43.3531 38.2477 43.4646 38.6156C43.4098 38.6587 43.3551 38.7037 43.3003 38.7467C43.1672 38.7585 43.0576 38.8818 42.9128 38.8328L42.9108 38.8309Z" fill="#FD89FE"/>
<path d="M54.069 31.1852C53.6737 30.9641 53.4878 30.5648 53.2393 30.2185C53.2276 30.2009 53.2452 30.1519 53.2354 30.1461C52.6875 29.8623 52.4781 29.2753 52.0847 28.8545C52.0769 28.8467 52.0593 28.8486 52.0475 28.8467C52.2882 28.5884 52.5289 28.3301 52.7696 28.0718C52.9869 27.9837 53.1278 28.0737 53.1865 28.2792C53.2276 28.422 53.2706 28.5629 53.3978 28.6353C53.7481 28.833 53.9242 29.1852 54.163 29.4788C54.3704 29.7351 54.5602 29.9954 54.9438 29.9406C54.889 30.0463 54.8361 30.1519 54.7813 30.2576C54.5445 30.5668 54.3058 30.876 54.069 31.1852Z" fill="#D753FE"/>
<path d="M54.9438 29.9404C54.6894 30.0911 54.4565 30.1263 54.3039 29.8054C54.1669 29.5197 53.8068 29.3905 53.7735 29.0285C53.7696 28.9894 53.6659 28.9659 53.619 28.9248C53.4096 28.7369 53.0612 28.6724 53.1004 28.2634C53.118 28.0912 52.889 28.1225 52.7677 28.0696C52.7931 28.0188 52.8205 27.9659 52.846 27.915C53.0397 27.7017 53.2354 27.4884 53.4291 27.2751C53.6777 27.1949 53.8812 27.1636 53.9007 27.5374C53.9164 27.8446 54.1551 27.7409 54.3626 27.6763C54.341 27.8231 54.3215 27.9209 54.3117 28.0188C54.3039 28.097 54.3058 28.1812 54.4213 28.1773C54.4917 28.1753 54.568 28.3416 54.6307 28.1655C54.6698 28.0559 54.7716 28.0325 54.8498 28.0892C54.9301 28.1479 54.8146 28.2164 54.8127 28.2908C54.8127 28.418 54.7872 28.5432 54.7696 28.7095C54.9751 28.6078 55.1532 28.5139 55.1258 28.8681C55.116 29.005 55.1551 29.2203 55.388 29.2379C55.3919 29.2633 55.3919 29.2888 55.388 29.3142C55.2393 29.5236 55.0905 29.735 54.9438 29.9443V29.9404Z" fill="#D054FE"/>
<path d="M36.1204 36.9717C36.8758 38.0128 37.8014 38.9071 38.6409 39.8757C38.7309 39.9794 38.7818 40.091 38.774 40.228C38.5313 40.3082 38.2887 40.3865 38.046 40.4667C37.9384 40.4726 37.8268 40.4667 37.7388 40.5469C37.6938 40.545 37.6488 40.543 37.6037 40.5411C37.7427 40.3513 37.5763 40.2593 37.4726 40.1575C36.641 39.3376 35.96 38.3865 35.1694 37.5314C35.1009 37.457 35.0656 37.3533 35.0148 37.2633C35.0187 37.2437 35.0246 37.2241 35.0324 37.2046C35.1146 37.2046 35.1968 37.2085 35.2613 37.1419C35.4707 37.095 35.6919 37.0911 35.8797 36.9658C35.958 36.9658 36.0363 36.9697 36.1145 36.9717H36.1204Z" fill="#FECCFE"/>
<path d="M25.4142 42.983C25.4592 42.8128 25.5238 42.7247 25.6705 42.7756C25.694 42.7834 25.7234 42.8441 25.7155 42.8695C25.6666 43.03 25.5257 42.9556 25.4142 42.981V42.983Z" fill="#FEFEFE"/>
<path d="M49.5369 31.776C49.531 31.8308 49.5075 31.8719 49.4468 31.8758C49.3921 31.8797 49.3373 31.8543 49.3568 31.7956C49.3686 31.7584 49.4273 31.731 49.4703 31.7134C49.5193 31.6938 49.531 31.7369 49.5369 31.776Z" fill="#EB50FE"/>
</g>
<defs>
<clipPath id="clip0_273_90">
<rect width="75" height="75" fill="white"/>
</clipPath>
</defs>
</svg>
