<svg width="76" height="75" viewBox="0 0 76 75" fill="none" xmlns="http://www.w3.org/2000/svg">
<g clip-path="url(#clip0_273_81)">
<path d="M75.002 12.0117V75C54.6458 75 34.2916 75.002 13.9354 74.9902C12.9883 74.9902 12.0235 74.953 11.0959 74.7769C4.49316 73.5284 0.00392183 68.09 0.00392183 61.3601C-0.00194901 40.9061 7.93577e-06 20.454 7.93577e-06 0C20.9981 0 41.9941 0 62.9902 0C63.1253 0.0450098 63.2564 0.107632 63.3953 0.131115C69.0059 1.09198 72.6908 4.28571 74.4501 9.68884C74.6967 10.4423 74.8219 11.2368 75.002 12.0117ZM71.6047 71.6047C71.6047 71.2583 71.6047 71.0391 71.6047 70.8219C71.6047 51.7808 71.6106 32.7417 71.6008 13.7006C71.5969 7.77887 67.1957 3.40117 61.2564 3.39922C42.2407 3.39139 23.2231 3.3953 4.20744 3.39922C3.95108 3.39922 3.69472 3.4227 3.39727 3.43836C3.39727 3.74364 3.39727 3.96282 3.39727 4.18004C3.39727 23.2446 3.39727 42.3092 3.4051 61.3757C3.4051 62.0548 3.45989 62.7476 3.59296 63.4129C4.58318 68.3601 8.63602 71.6047 13.82 71.6067C32.7867 71.6106 51.7554 71.6067 70.7221 71.6067H71.6047V71.6047Z" fill="white"/>
<path d="M50.0333 30.996V24.7769H54.2681C54.2916 25.3091 54.3346 25.8571 54.3366 26.4031C54.3601 33.5909 54.3894 40.7769 54.3679 47.9647C54.3679 48.3502 54.0235 48.9432 53.6869 49.088C50.8884 50.3033 47.9902 50.6007 45.0352 49.7005C43.043 49.0939 41.5284 47.816 40.6908 45.9393C39.0685 42.3091 39.0196 38.6418 41.047 35.1271C42.5421 32.5342 44.9276 31.2622 47.8689 31.0039C48.5147 30.9471 49.1683 30.996 50.0313 30.996H50.0333ZM50.0254 40.4892C50.0254 39.6927 50.0254 38.8982 50.0254 38.1017C50.0254 37.3052 49.9589 36.5029 50.0411 35.7162C50.1526 34.6614 49.5949 34.4285 48.7221 34.4246C46.7554 34.4129 45.0411 35.5831 44.3111 37.5303C43.5792 39.4853 43.6047 41.4774 44.2309 43.45C44.9237 45.6379 46.683 46.7221 48.9824 46.5225C49.7338 46.4579 50.0587 46.1937 50.0372 45.4031C49.9941 43.7671 50.0235 42.1271 50.0254 40.4892Z" fill="white"/>
<path d="M39.0078 50.1194C39.0078 50.1194 39.0196 50.1194 39.0254 50.1194C38.9452 49.9374 38.8747 49.7731 38.8102 49.6204C38.7045 49.3523 38.6223 49.141 38.5186 48.9394C36.7397 45.4776 34.9882 42.002 33.1487 38.5735C32.9648 38.231 32.8297 37.912 32.7534 37.5989C32.7182 37.2388 32.8043 36.8905 33.0176 36.4834C34.7534 33.1586 36.4325 29.8044 38.1272 26.458C38.3562 26.0059 38.5518 25.5363 38.8904 24.7965C38.8121 24.7965 38.7378 24.7965 38.6614 24.7965C38.6614 24.7946 38.6634 24.7907 38.6654 24.7887C38.4853 24.7887 38.3131 24.7887 38.1428 24.7926C37.3522 24.7848 36.6066 24.7711 35.8787 24.7868C35.8023 24.7809 35.726 24.777 35.6477 24.7691C35.3405 24.7398 35.0822 24.7613 34.861 24.8298C34.8121 24.8337 34.7612 24.8357 34.7123 24.8396C34.3875 24.865 34.0059 25.3856 33.8219 25.7633C32.5049 28.4736 31.227 31.2036 29.8278 34.1664C28.4286 31.2055 27.1507 28.4736 25.8336 25.7633C25.6497 25.3856 25.2681 24.867 24.9432 24.8396C24.8943 24.8357 24.8434 24.8337 24.7945 24.8298C24.5734 24.7613 24.317 24.7398 24.0078 24.7691C23.9315 24.777 23.8552 24.7809 23.7769 24.7868C23.0489 24.7711 22.3033 24.7868 21.5127 24.7926C21.3425 24.7907 21.1702 24.7887 20.9902 24.7887C20.9902 24.7907 20.9922 24.7926 20.9941 24.7965C20.9178 24.7965 20.8415 24.7965 20.7652 24.7965C21.1037 25.5363 21.2994 26.0059 21.5284 26.458C23.2211 29.8044 24.9002 33.1586 26.638 36.4834C26.8513 36.8905 26.9374 37.2408 26.9021 37.5989C26.8258 37.912 26.6908 38.231 26.5068 38.5735C24.6673 42.002 22.9158 45.4795 21.137 48.9394C21.0333 49.141 20.9511 49.3523 20.8454 49.6204C20.7808 49.7731 20.7104 49.9374 20.6301 50.1194C20.636 50.1194 20.6419 50.1194 20.6477 50.1194C20.6419 50.1331 20.636 50.1468 20.6301 50.1605C21.1898 50.1605 21.726 50.1723 22.2466 50.1801C22.8141 50.2643 23.317 50.2603 23.7652 50.1723C24.0744 50.1605 24.3796 50.1429 24.6849 50.1097C25.092 50.0666 25.5714 49.503 25.7886 49.0646C27.135 46.3484 28.4246 43.6008 29.8297 40.6537C31.2348 43.6028 32.5245 46.3484 33.8708 49.0646C34.0881 49.503 34.5675 50.0666 34.9746 50.1097C35.2798 50.141 35.5851 50.1605 35.8943 50.1723C36.3425 50.2603 36.8454 50.2643 37.4129 50.1801C37.9335 50.1723 38.4697 50.1605 39.0293 50.1605C39.0235 50.1468 39.0176 50.1331 39.0117 50.1194H39.0078Z" fill="white"/>
</g>
<defs>
<clipPath id="clip0_273_81">
<rect width="75.002" height="75" fill="white"/>
</clipPath>
</defs>
</svg>
