<svg width="45" height="45" viewBox="0 0 45 45" fill="none" xmlns="http://www.w3.org/2000/svg">
<g clip-path="url(#clip0_1_42)">
<path d="M30.6022 0H19.6517C19.2482 0 18.9447 0.090089 18.7432 0.270267C18.5408 0.449678 18.4405 0.75023 18.4405 1.17001V21.4557C18.4218 21.6018 18.3794 21.7137 18.3119 21.7896C18.2187 21.8943 18.0322 21.9472 17.7529 21.9472H14.7239C9.94089 21.9472 6.29057 22.9297 3.7741 24.896C1.25803 26.8618 0 29.7658 0 33.6089C0 41.2025 4.80005 45 14.3982 45H25.3487C25.7522 45 26.0557 44.9099 26.2572 44.7297C26.4596 44.5503 26.5599 44.2498 26.5599 43.83V23.5443C26.5786 23.3982 26.621 23.2863 26.6885 23.2104C26.7817 23.1057 26.9682 23.0528 27.2475 23.0528H30.2765C35.0595 23.0528 38.7098 22.0703 41.2263 20.104C43.7428 18.1385 45.0008 15.2342 45.0008 11.3915C45 3.79754 40.2003 0 30.6022 0ZM18.3123 37.6388C18.2191 37.7434 18.0326 37.7963 17.7533 37.7963H14.7243C12.5811 37.7963 10.989 37.4586 9.94882 36.7827C8.9082 36.1076 8.38729 35.0342 8.38729 33.5633C8.38729 32.0924 8.92327 30.9894 9.99524 30.2538C11.0668 29.5181 12.6442 29.1509 14.7247 29.1509H17.7537C18.0326 29.1509 18.2195 29.203 18.3127 29.3084C18.3801 29.3839 18.4226 29.4955 18.4412 29.6416V30.3469C18.4412 30.4217 18.4448 30.493 18.4524 30.5609V37.1205C18.4524 37.3601 18.4059 37.533 18.3127 37.6388H18.3123ZM35.0052 14.7458C33.9336 15.4815 32.3562 15.8488 30.2757 15.8488H27.2467C26.9678 15.8488 26.7809 15.7966 26.6877 15.6912C26.6202 15.6157 26.5778 15.5045 26.5592 15.3581V14.6527C26.5592 14.5779 26.5552 14.5066 26.548 14.4388V7.87952C26.548 7.63993 26.5945 7.46703 26.6877 7.36161C26.7809 7.25695 26.9674 7.20405 27.2467 7.20405H30.2757C32.4189 7.20405 34.0109 7.54179 35.0512 8.21764C36.0918 8.89274 36.6127 9.96614 36.6127 11.4371C36.6127 12.908 36.0767 14.0109 35.0048 14.7466L35.0052 14.7458Z" fill="white"/>
</g>
<defs>
<clipPath id="clip0_1_42">
<rect width="45" height="45" fill="white"/>
</clipPath>
</defs>
</svg>
