<svg width="45" height="45" viewBox="0 0 45 45" fill="none" xmlns="http://www.w3.org/2000/svg">
<path d="M21.0921 -0.00012207C22.0309 -0.00012207 22.9663 -0.00012207 23.905 -0.00012207C24.656 0.0971064 25.4137 0.16416 26.1614 0.294916C31.5391 1.23367 36.0586 3.73814 39.5823 7.90556C44.0447 13.176 45.7647 19.2947 44.6884 26.1074C43.7564 32.0216 40.806 36.8226 36.0385 40.4335C31.1435 44.1416 25.5881 45.5732 19.5029 44.792C15.0002 44.2153 11.0306 42.3747 7.63435 39.3606C3.72845 35.8872 1.28433 31.5723 0.352278 26.4192C0.201406 25.5877 0.114236 24.7428 0.000244141 23.9047C0.000244141 22.9659 0.000244141 22.0305 0.000244141 21.0917C0.0974726 20.3407 0.171232 19.583 0.298635 18.8354C1.09323 14.155 3.14843 10.1049 6.48102 6.7254C9.84714 3.31906 13.8972 1.17668 18.6245 0.345206C19.4426 0.20104 20.2707 0.11387 21.0921 -0.00012207ZM22.5002 32.7223C26.3089 32.7223 30.1142 32.7223 33.9229 32.7223C35.8272 32.7223 36.9973 31.5589 36.9973 29.668C36.9973 24.8803 36.9973 20.0926 36.9973 15.3016C36.9973 13.4576 35.8239 12.2775 33.9833 12.2775C26.3257 12.2775 18.6681 12.2775 11.0072 12.2775C10.7155 12.2775 10.4171 12.2942 10.1388 12.3647C8.8145 12.7033 7.9998 13.7963 7.9998 15.2178C7.9998 20.0055 8.03332 24.7931 7.97968 29.5841C7.95956 31.3376 9.20006 32.7692 11.1212 32.739C14.9131 32.682 18.705 32.7223 22.5002 32.7223Z" fill="white"/>
<path d="M10.3668 15.8079C11.148 16.4248 11.8789 17.0014 12.6064 17.5814C15.6105 19.9652 18.6145 22.3523 21.6185 24.7395C22.2622 25.2491 22.7383 25.2491 23.3921 24.7328C26.946 21.9098 30.4998 19.0902 34.0537 16.2672C34.2247 16.1331 34.3957 15.999 34.6337 15.8112C34.6505 16.0157 34.6672 16.1498 34.6672 16.2839C34.6672 20.7229 34.6672 25.1586 34.6672 29.5975C34.6672 30.2915 34.5465 30.4122 33.8458 30.4122C26.2754 30.4122 18.7017 30.4122 11.1313 30.4122C10.4708 30.4122 10.33 30.2882 10.33 29.6679C10.33 25.1854 10.33 20.7062 10.33 16.2236C10.33 16.113 10.3501 16.0023 10.3668 15.8146V15.8079Z" fill="white"/>
<path d="M12.6567 14.6143H32.2566C32.2935 14.6478 32.327 14.6814 32.3639 14.7182C32.2566 14.7786 32.1359 14.8222 32.042 14.8959C28.9676 17.3334 25.8931 19.7708 22.8254 22.2182C22.5941 22.4026 22.4499 22.4362 22.1951 22.235C19.1073 19.7674 16.0094 17.3132 12.9115 14.8524C12.8377 14.792 12.7707 14.7216 12.6533 14.611L12.6567 14.6143Z" fill="white"/>
</svg>
