<svg width="45" height="45" viewBox="0 0 45 45" fill="none" xmlns="http://www.w3.org/2000/svg">
<g clip-path="url(#clip0_626_37)">
<path d="M20.8301 0.0614386C17.5693 0.369056 15.0908 1.06339 12.3838 2.4257C8.81543 4.20988 5.51074 7.2421 3.33984 10.7226C1.7666 13.2362 0.624023 16.4794 0.158203 19.7314C0.00878906 20.7685 0.00878906 24.2314 0.158203 25.2685C0.527344 27.8612 1.21289 30.1288 2.28516 32.2997C3.48926 34.7607 4.67578 36.413 6.62695 38.373C8.56934 40.3066 10.248 41.5107 12.6123 42.6708C14.2646 43.4794 15.3281 43.8749 17.0068 44.2968C21.4014 45.4042 25.8135 45.1933 30.1025 43.6728C31.4121 43.2069 33.6797 42.0732 34.8486 41.2909C38.0566 39.1552 40.7109 36.2109 42.46 32.8271C44.0508 29.7685 44.8418 26.7275 44.9736 23.247C45.1055 19.5028 44.332 15.9345 42.6621 12.5771C41.5723 10.3798 40.3506 8.64835 38.6367 6.88175C36.7383 4.913 34.875 3.55949 32.3877 2.32902C29.7861 1.04581 27.3604 0.351478 24.4775 0.0878057C23.5811 0.00870419 21.5508 -0.00887394 20.8301 0.0614386ZM28.459 12.454L28.4766 14.6601L26.877 14.6952C24.4424 14.7392 24.4336 14.748 24.4336 17.1825V18.7206H26.499C27.6328 18.7206 28.5645 18.7294 28.5645 18.747C28.5645 18.7646 28.4678 19.7138 28.3447 20.8651C28.2217 22.0165 28.125 23.036 28.125 23.1239C28.125 23.2821 28.0371 23.2909 26.2793 23.2909H24.4336V29.7948V36.2987H21.709H18.9844V29.7948V23.2909H17.71H16.4355V21.0058V18.7206H17.7012H18.9668L19.0107 16.6728C19.0547 14.3612 19.1426 13.8691 19.7314 12.7616C20.4521 11.3817 21.7793 10.5116 23.4844 10.2919C23.7832 10.248 25.0312 10.2216 26.2354 10.2304L28.4326 10.2392L28.459 12.454Z" fill="white"/>
</g>
<defs>
<clipPath id="clip0_626_37">
<rect width="45" height="45" fill="white"/>
</clipPath>
</defs>
</svg>
