<svg width="45" height="45" viewBox="0 0 45 45" fill="none" xmlns="http://www.w3.org/2000/svg">
<path d="M21.1474 0.0544124C43.0465 -1.41884 53.8627 27.4043 36.0992 40.4485C23.4803 50.742 2.71227 42.5091 0.405068 26.4446C-2.20097 13.6154 8.12358 0.715611 21.1474 0.0544124ZM9.46034 35.8265C11.7225 35.2809 13.9333 34.655 16.1891 34.1029C16.4301 34.0419 16.745 34.0772 16.9668 34.1832C26.3851 39.1999 38.2714 30.5851 36.3369 20.0701C32.2656 -0.224832 2.14993 9.78943 11.1634 28.5052C11.3048 28.7716 11.3369 28.9963 11.2566 29.2852C10.6557 31.4357 10.0741 33.5926 9.46355 35.8233L9.46034 35.8265Z" fill="white"/>
<path d="M12.6866 32.649C13.0336 31.3843 13.3421 30.2 13.6859 29.0252C13.7888 28.6689 13.7438 28.4025 13.5478 28.088C4.83311 12.5787 30.4694 3.03305 34.078 20.3847C35.7875 29.5323 25.0998 36.69 17.2688 31.7599C16.2888 31.3875 13.943 32.4532 12.6898 32.649H12.6866ZM26.5683 28.6208C28.2875 28.7042 30.6075 27.0416 29.6114 25.2153C28.6892 24.7403 27.7508 24.3005 26.8093 23.864C26.0606 23.5527 25.6172 24.8622 25.1287 25.2731C23.9494 26.3612 20.2926 22.6989 19.7881 21.537C19.3929 20.8469 20.3987 20.3622 20.6204 19.7684C21.0413 19.0141 19.846 17.2713 19.5921 16.4175C19.5214 16.257 19.364 16.0452 19.2194 16.0227C17.0503 15.384 15.8421 18.1315 16.2695 19.9321C17.5838 24.1946 22.0439 28.2131 26.5651 28.624L26.5683 28.6208Z" fill="white"/>
</svg>
