<svg width="42" height="28" viewBox="0 0 42 28" fill="none" xmlns="http://www.w3.org/2000/svg">
<path d="M42 14.1458C42 17.8468 42 21.5477 42 25.2478C41.6611 27.0043 40.4746 27.9941 38.6455 27.9949C26.8827 28.0014 15.1198 28.003 3.35695 27.9916C2.00957 27.99 0.919858 27.4616 0.252735 26.2245C0.0853392 25.9133 0.0919037 25.5712 0 25.2478C0 21.5469 0 17.8459 0 14.1458C0.105853 14.0462 0.237144 14.0176 0.376641 14.0078C0.471827 14.0013 0.567834 14.0005 0.66384 14.0005C14.2213 13.9997 27.7787 13.9997 41.3362 14.0021C41.5659 14.0021 41.8063 13.9727 42 14.1458Z" fill="#CE1338"/>
<path d="M42 14C28 14 14 14 0 14C0 10.2609 0 6.52096 0 2.78103C0.339722 1.00514 1.52629 0.00579214 3.35619 0.00496692C15.1193 -0.0016349 26.8824 -0.00246013 38.6455 0.0074426C39.9994 0.00826783 41.0785 0.549617 41.7473 1.79406C41.9303 2.13405 41.9138 2.50788 41.9992 2.86356C42 6.57543 42 10.2881 42 14Z" fill="#E4E4E4"/>
</svg>
